<svg viewBox="0 0 248 182" fill="none" xmlns="http://www.w3.org/2000/svg">
<path d="M248 98.5C248 138.541 215.093 171 174.5 171C133.907 171 101 138.541 101 98.5C101 58.4594 133.907 26 174.5 26C215.093 26 248 58.4594 248 98.5Z" fill="#0795F1"/>
<path fill-rule="evenodd" clip-rule="evenodd" d="M133.011 37.6484C122.956 40.8341 107.961 43.2714 69.0029 43.5L68.9971 42.5C107.936 42.2715 122.805 39.8329 132.709 36.6951C135.631 35.7692 138.14 34.7736 140.72 33.7494C146.864 31.3112 153.415 28.7113 166.919 26.5065L167.081 27.4935C153.686 29.6803 147.279 32.2246 141.167 34.6511C138.567 35.6837 136.02 36.695 133.011 37.6484Z" fill="#0795F1"/>
<path fill-rule="evenodd" clip-rule="evenodd" d="M68.5085 57.9999C68.5085 57.9999 68.5082 57.9999 68.5 57.5C68.4918 57.0001 68.4922 57.0001 68.4922 57.0001L68.8359 56.9946C69.0606 56.991 69.3908 56.9859 69.8128 56.9796C70.6568 56.9669 71.868 56.9493 73.3371 56.9297C76.2752 56.8907 80.245 56.8438 84.3712 56.8125C92.6031 56.7502 101.515 56.7491 104.05 57.0025C106.787 57.2762 108.425 59.0723 109.16 61.2125C109.888 63.3297 109.758 65.8328 108.96 67.697L108.04 67.3031C108.742 65.6672 108.862 63.4203 108.215 61.5376C107.575 59.6777 106.213 58.2238 103.95 57.9975C101.485 57.751 92.6469 57.7499 84.3788 57.8125C80.2551 57.8437 76.2873 57.8906 73.3504 57.9297C71.882 57.9492 70.6713 57.9668 69.8278 57.9794C69.4061 57.9858 69.0761 57.9909 68.8516 57.9945L68.5085 57.9999ZM106.233 69.8076C106.703 69.471 106.937 69.1513 107.019 68.8627L107.981 69.1374C107.813 69.7238 107.386 70.2116 106.815 70.6206C106.242 71.0312 105.483 71.3917 104.575 71.7134C102.758 72.357 100.252 72.8758 97.2036 73.2983C91.1006 74.1443 82.7197 74.6177 73.0824 74.8913C61.7541 75.213 48.6497 75.2593 35.4243 75.3061C26.1548 75.3388 16.8258 75.3718 8.00726 75.5L7.99274 74.5001C16.8378 74.3715 26.1753 74.3386 35.4462 74.3059C48.6562 74.2594 61.7311 74.2133 73.0541 73.8917C82.6857 73.6182 91.0207 73.1458 97.0663 72.3078C100.092 71.8884 102.519 71.3806 104.241 70.7708C105.102 70.4657 105.765 70.1427 106.233 69.8076ZM7.51347 90.4998C7.51347 90.4998 7.51266 90.4999 7.49999 90C7.48732 89.5002 7.48816 89.5002 7.48816 89.5002L7.4906 89.5001L8.28758 89.4804C8.80989 89.4676 9.57674 89.4491 10.555 89.4263C12.5114 89.3805 15.3133 89.3172 18.6958 89.2468C25.4605 89.106 34.5474 88.937 43.8354 88.8244C53.1227 88.7118 62.614 88.6554 70.1866 88.7399C73.9724 88.7822 77.2827 88.8597 79.8499 88.9833C82.3918 89.1057 84.2667 89.275 85.1351 89.5186C88.3823 90.4295 90.2633 91.5313 91.3039 93.1138C92.3343 94.6808 92.4702 96.6244 92.5 98.9937C92.5316 101.51 91.7051 103.172 90.3149 104.377C88.9647 105.548 87.109 106.259 85.1722 106.969L85.0923 106.999L50.0071 107.5L49.9929 106.5L84.9077 106.001C86.8429 105.29 88.4879 104.638 89.6599 103.622C90.808 102.627 91.5283 101.255 91.5 99.0063C91.47 96.6099 91.3173 94.9543 90.4684 93.6632C89.6297 92.3877 88.0406 91.3723 84.865 90.4814C84.1276 90.2746 82.3763 90.1061 79.8018 89.9821C77.2526 89.8594 73.9563 89.7821 70.1754 89.7399C62.6145 89.6555 53.1323 89.7117 43.8475 89.8243C34.5633 89.9369 25.4795 90.1058 18.7166 90.2465C15.3351 90.3169 12.534 90.3802 10.5783 90.426C9.60049 90.4489 8.83399 90.4673 8.312 90.4801L7.51347 90.4998Z" fill="#0795F1"/>
<path fill-rule="evenodd" clip-rule="evenodd" d="M68.5085 57.9999C68.5085 57.9999 68.5082 57.9999 68.5 57.5C68.4918 57.0001 68.4922 57.0001 68.4922 57.0001L68.8359 56.9946C69.0606 56.991 69.3908 56.9859 69.8128 56.9795C70.6568 56.9668 71.868 56.9493 73.3371 56.9297C76.2752 56.8907 80.245 56.8438 84.3712 56.8125C92.6031 56.7501 101.515 56.749 104.05 57.0025C106.787 57.2762 108.425 59.0723 109.16 61.2125C109.888 63.3297 109.758 65.8328 108.96 67.697L108.04 67.303C108.742 65.6672 108.862 63.4203 108.215 61.5375C107.575 59.6777 106.213 58.2238 103.95 57.9975C101.485 57.751 92.6469 57.7498 84.3788 57.8125C80.2551 57.8437 76.2873 57.8906 73.3504 57.9296C71.882 57.9492 70.6713 57.9667 69.8278 57.9794C69.4061 57.9858 69.0761 57.9909 68.8516 57.9944L68.5085 57.9999ZM106.233 69.8076C106.703 69.471 106.937 69.1512 107.019 68.8626L107.981 69.1374C107.813 69.7238 107.386 70.2116 106.815 70.6206C106.242 71.0311 105.483 71.3917 104.575 71.7133C102.758 72.357 100.252 72.8758 97.2036 73.2983C91.1006 74.1443 82.7197 74.6176 73.0824 74.8913C61.7541 75.213 48.6497 75.2593 35.4243 75.3061C26.1548 75.3388 16.8258 75.3718 8.00726 75.4999L7.99274 74.5001C16.8378 74.3715 26.1753 74.3386 35.4462 74.3059C48.6562 74.2593 61.7311 74.2132 73.0541 73.8917C82.6857 73.6182 91.0207 73.1458 97.0663 72.3078C100.092 71.8884 102.519 71.3806 104.241 70.7707C105.102 70.4656 105.765 70.1427 106.233 69.8076ZM7.51347 90.4998C7.51347 90.4998 7.51266 90.4998 7.49999 90C7.48732 89.5002 7.48816 89.5001 7.48816 89.5001H7.4906L8.28758 89.4804C8.80989 89.4676 9.57674 89.4491 10.555 89.4262C12.5114 89.3805 15.3133 89.3171 18.6958 89.2467C25.4605 89.106 34.5474 88.937 43.8354 88.8244C53.1227 88.7118 62.614 88.6554 70.1866 88.7399C73.9724 88.7822 77.2827 88.8597 79.8499 88.9833C82.3918 89.1057 84.2667 89.275 85.1351 89.5186C88.3823 90.4295 90.2633 91.5312 91.3039 93.1138C92.3343 94.6808 92.4702 96.6244 92.5 98.9937C92.5316 101.51 91.7051 103.172 90.3149 104.377C88.9647 105.548 87.109 106.259 85.1722 106.969L85.0923 106.999L50.0071 107.5L49.9929 106.5L84.9077 106.001C86.8429 105.29 88.4879 104.638 89.6599 103.622C90.808 102.627 91.5283 101.255 91.5 99.0063C91.47 96.6099 91.3173 94.9543 90.4684 93.6632C89.6297 92.3876 88.0406 91.3722 84.865 90.4814C84.1276 90.2746 82.3763 90.1061 79.8018 89.9821C77.2526 89.8594 73.9563 89.7821 70.1754 89.7399C62.6145 89.6555 53.1323 89.7117 43.8475 89.8243C34.5633 89.9369 25.4795 90.1058 18.7166 90.2465C15.3351 90.3169 12.534 90.3802 10.5783 90.426C9.60049 90.4488 8.83399 90.4673 8.312 90.4801L7.51347 90.4998Z" fill="#0795F1"/>
<path fill-rule="evenodd" clip-rule="evenodd" d="M68.5085 57.9999C68.5085 57.9999 68.5082 57.9999 68.5 57.5C68.4918 57.0001 68.4922 57.0001 68.4922 57.0001L68.8359 56.9946C69.0606 56.991 69.3908 56.9859 69.8128 56.9795C70.6568 56.9668 71.868 56.9493 73.3371 56.9297C76.2752 56.8907 80.245 56.8438 84.3712 56.8125C92.6031 56.7501 101.515 56.749 104.05 57.0025C106.787 57.2762 108.425 59.0723 109.16 61.2125C109.888 63.3297 109.758 65.8328 108.96 67.697L108.04 67.303C108.742 65.6672 108.862 63.4203 108.215 61.5375C107.575 59.6777 106.213 58.2238 103.95 57.9975C101.485 57.751 92.6469 57.7498 84.3788 57.8125C80.255 57.8437 76.2873 57.8906 73.3504 57.9296C71.882 57.9492 70.6713 57.9667 69.8278 57.9794C69.4061 57.9858 69.0761 57.9909 68.8516 57.9944L68.5085 57.9999ZM106.726 69.3136C107.201 68.9727 107.437 68.6508 107.519 68.3626L108.481 68.6374C108.313 69.2242 107.884 69.7138 107.31 70.1259C106.733 70.5397 105.97 70.9056 105.055 71.2341C103.225 71.8914 100.701 72.4299 97.6287 72.876C91.4789 73.769 83.0357 74.305 73.3356 74.6412C60.8147 75.0752 46.1601 75.1771 31.5861 75.2785C23.5798 75.3341 15.5978 75.3896 8.00726 75.4999L7.99273 74.5001C15.6009 74.3895 23.5917 74.3339 31.6017 74.2783C46.165 74.177 60.7923 74.0753 73.3009 73.6418C82.9947 73.3058 91.3923 72.7711 97.485 71.8864C100.534 71.4436 102.981 70.9165 104.717 70.293C105.586 69.981 106.254 69.6526 106.726 69.3136ZM7.5114 91.4999C7.5114 91.4999 7.51061 91.4999 7.49999 91C7.48938 90.5001 7.4902 90.5001 7.4902 90.5001L7.49263 90.5L8.28453 90.4836C8.80345 90.473 9.56517 90.4576 10.5365 90.4386C12.4792 90.4005 15.2603 90.3477 18.6143 90.2891C25.3223 90.1719 34.3222 90.0313 43.4897 89.9375C52.6565 89.8438 61.9933 89.7969 69.3739 89.8672C73.0637 89.9024 76.2685 89.9669 78.7201 90.0698C79.9456 90.1212 80.9872 90.1824 81.8091 90.2547C82.6189 90.326 83.2508 90.4108 83.635 90.5186C86.3147 91.2703 88.5167 92.1013 90.0543 93.3924C91.6274 94.7133 92.4684 96.4825 92.5 98.9937C92.5314 101.5 91.7362 103.268 90.3606 104.53C89.0093 105.771 87.1448 106.479 85.1213 106.985L85.0651 106.999L50.0071 107.5L49.9929 106.5L84.9347 106.001C86.8866 105.508 88.5316 104.852 89.6843 103.794C90.8236 102.748 91.5284 101.266 91.5 99.0063C91.4717 96.7518 90.7364 95.271 89.4113 94.1583C88.0507 93.0158 86.0325 92.2297 83.365 91.4814C83.0808 91.4017 82.5341 91.3224 81.7214 91.2509C80.921 91.1804 79.8963 91.12 78.6782 91.0689C76.2425 90.9667 73.0502 90.9023 69.3644 90.8672C61.9937 90.7969 52.6647 90.8437 43.4999 90.9375C34.3357 91.0312 25.3383 91.1718 18.6318 91.289C15.2786 91.3476 12.4982 91.4003 10.5561 91.4384C9.58508 91.4574 8.82364 91.4728 8.305 91.4834L7.5114 91.4999Z" fill="#0795F1"/>
<path d="M29 50.5C29 46.3579 32.3579 43 36.5 43H45.5C49.6421 43 53 46.3579 53 50.5C53 54.6421 49.6421 58 45.5 58H36.5C32.3579 58 29 54.6421 29 50.5Z" fill="#0795F1"/>
<path d="M14 114.5C14 110.358 17.3579 107 21.5 107C25.6421 107 29 110.358 29 114.5C29 118.642 25.6421 122 21.5 122C17.3579 122 14 118.642 14 114.5Z" fill="#0795F1"/>
<path d="M44 113.5C44 109.358 47.3579 106 51.5 106H109.5C113.642 106 117 109.358 117 113.5C117 117.642 113.642 121 109.5 121H51.5C47.3579 121 44 117.642 44 113.5Z" fill="#0795F1"/>
<path d="M0 82.5C0 77.2533 4.25329 73 9.5 73H99.5C104.747 73 109 77.2533 109 82.5C109 87.7467 104.747 92 99.5 92H9.5C4.25329 92 0 87.7467 0 82.5Z" fill="#0795F1"/>
<path d="M62 50C62 45.5817 65.5817 42 70 42H163C167.418 42 171 45.5817 171 50C171 54.4183 167.418 58 163 58H70C65.5817 58 62 54.4183 62 50Z" fill="#0795F1"/>
<path d="M106 55C106 50.5817 109.582 47 114 47H120C124.418 47 128 50.5817 128 55C128 59.4183 124.418 63 120 63H114C109.582 63 106 59.4183 106 55Z" fill="#0795F1"/>
<path d="M103.566 50.3991C103.104 46.0051 106.291 42.0685 110.686 41.6066L116.653 40.9793C121.047 40.5173 124.983 43.705 125.445 48.099C125.907 52.4931 122.72 56.4297 118.325 56.8916L112.358 57.5189C107.964 57.9808 104.028 54.7932 103.566 50.3991Z" fill="#0795F1"/>
<path d="M113.555 49.1238C112.696 44.7898 115.513 40.5802 119.847 39.7213L125.733 38.555C130.067 37.6962 134.277 40.5134 135.135 44.8474C135.994 49.1814 133.177 53.391 128.843 54.2499L122.958 55.4162C118.624 56.275 114.414 53.4578 113.555 49.1238Z" fill="#0795F1"/>
<path d="M125.245 47.8533C124.005 43.6126 126.438 39.1695 130.678 37.9294L136.437 36.2454C140.678 35.0053 145.121 37.4377 146.361 41.6784C147.601 45.9191 145.169 50.3621 140.928 51.6022L135.169 53.2863C130.929 54.5264 126.485 52.0939 125.245 47.8533Z" fill="#0795F1"/>
<path d="M109 63C109 58.5817 112.582 55 117 55H123C127.418 55 131 58.5817 131 63C131 67.4183 127.418 71 123 71H117C112.582 71 109 67.4183 109 63Z" fill="#0795F1"/>
<path d="M102 77C102 72.5817 105.582 69 110 69H116C120.418 69 124 72.5817 124 77C124 81.4183 120.418 85 116 85H110C105.582 85 102 81.4183 102 77Z" fill="#0795F1"/>
<path d="M97 79C97 74.5817 100.582 71 105 71H111C115.418 71 119 74.5817 119 79C119 83.4183 115.418 87 111 87H105C100.582 87 97 83.4183 97 79Z" fill="#0795F1"/>
<path d="M86.8912 81.4009C86.399 77.0101 89.5594 73.0517 93.9502 72.5595L99.9129 71.8912C104.304 71.399 108.262 74.5594 108.754 78.9502C109.246 83.341 106.086 87.2994 101.695 87.7916L95.7325 88.46C91.3418 88.9521 87.3833 85.7917 86.8912 81.4009Z" fill="#0795F1"/>
<path d="M69 146.5C69 142.358 72.3579 139 76.5 139H134.5C138.642 139 142 142.358 142 146.5C142 150.642 138.642 154 134.5 154H76.5C72.3579 154 69 150.642 69 146.5Z" fill="#0795F1"/>
<path fill-rule="evenodd" clip-rule="evenodd" d="M105.272 123.249C107.1 125.149 107.644 127.736 107.469 131.202L107.468 131.219L107.466 131.236C107.015 135.023 105.962 137.054 104.28 138.278C103.455 138.878 102.509 139.26 101.485 139.576C100.876 139.763 100.209 139.936 99.5136 140.115C99.061 140.232 98.5964 140.352 98.1276 140.482L97.8613 139.518C98.3698 139.378 98.8479 139.254 99.3029 139.137C99.9746 138.964 100.596 138.803 101.191 138.62C102.17 138.318 102.996 137.975 103.692 137.469C105.049 136.482 106.034 134.782 106.471 131.134C106.638 127.787 106.094 125.546 104.551 123.943C102.983 122.312 100.293 121.245 95.9154 120.493L96.0846 119.507C100.5 120.265 103.468 121.374 105.272 123.249Z" fill="#0795F1"/>
<path fill-rule="evenodd" clip-rule="evenodd" d="M128.761 158.872C121.278 156.943 111.491 154.941 101.862 153.83L101.977 152.837C111.659 153.954 121.491 155.966 129.01 157.904C132.769 158.872 135.958 159.825 138.264 160.64C139.416 161.047 140.359 161.424 141.045 161.755C141.388 161.92 141.678 162.079 141.903 162.231C142.108 162.37 142.33 162.548 142.445 162.772L141.555 163.228C141.558 163.233 141.557 163.233 141.552 163.228C141.538 163.212 141.484 163.155 141.343 163.06C141.174 162.946 140.932 162.81 140.611 162.656C139.971 162.347 139.068 161.985 137.931 161.583C135.661 160.78 132.503 159.836 128.761 158.872Z" fill="#0795F1"/>
<path d="M112.79 146L138.128 151.142L134 159L108.662 153.858L112.79 146Z" fill="#0795F1"/>
<path d="M118.656 145.712L143.249 153.689L140.472 162.25L115.879 154.273L118.656 145.712Z" fill="#0795F1"/>
<path d="M97 142.143L117.956 127L123.227 134.295L102.271 149.438L97 142.143Z" fill="#0795F1"/>
<path d="M104 145.37L108.978 120L117.81 121.733L112.832 147.103L104 145.37Z" fill="#0795F1"/>
<path d="M117.834 136.269L99 118.556L105.166 112L123.999 129.713L117.834 136.269Z" fill="#0795F1"/>
<path d="M100.022 90.5935C97.8454 94.4382 92.9638 95.7901 89.1191 93.613L83.898 90.6566C80.0533 88.4796 78.7015 83.598 80.8785 79.7533C83.0555 75.9086 87.9371 74.5567 91.7818 76.7338L97.0029 79.6902C100.848 81.8672 102.199 86.7488 100.022 90.5935Z" fill="#0795F1"/>
<path d="M99.9778 108.336C95.564 108.534 91.8253 105.117 91.6274 100.703L91.3585 94.7089C91.1605 90.2951 94.5781 86.5565 98.992 86.3585C103.406 86.1605 107.144 89.5781 107.342 93.992L107.611 99.9859C107.809 104.4 104.392 108.138 99.9778 108.336Z" fill="#0795F1"/>
<path d="M98.7188 116.93C95.6615 120.018 90.6797 120.043 87.5916 116.986C84.5034 113.929 84.4784 108.947 87.5356 105.859L91.7602 101.592C94.8174 98.5034 99.7993 98.4784 102.887 101.536C105.976 104.593 106.001 109.575 102.943 112.663L98.7188 116.93Z" fill="#0795F1"/>
<path d="M166 8C166 3.58172 169.582 0 174 0C178.418 0 182 3.58172 182 8V27C182 31.4183 178.418 35 174 35C169.582 35 166 31.4183 166 27V8Z" fill="#0795F1"/>
<path d="M155 7.5C155 3.35786 158.358 0 162.5 0H184.5C188.642 0 192 3.35786 192 7.5C192 11.6421 188.642 15 184.5 15H162.5C158.358 15 155 11.6421 155 7.5Z" fill="#0795F1"/>
<circle cx="178" cy="96" r="11" fill="white"/>
<path d="M131.764 141.192C112.104 157.728 155.653 110.771 170.801 94.5686C173.459 91.7254 177.963 91.8484 180.511 94.7908V94.7908C183.056 97.7302 182.523 102.222 179.37 104.498C169.486 111.632 148.963 126.725 131.764 141.192Z" fill="white"/>
<path d="M141.531 144.459C139.447 147.279 140.029 151.286 143.044 153.079C150.438 157.476 158.669 160.337 167.243 161.461C177.922 162.861 188.781 161.523 198.799 157.571C208.818 153.619 217.667 147.184 224.514 138.871C231.361 130.558 235.982 120.64 237.941 110.05C239.9 99.4601 239.133 88.5457 235.713 78.3334C232.292 68.1211 226.331 58.9465 218.389 51.6724C210.446 44.3984 200.785 39.2638 190.312 36.7517C181.903 34.7346 173.193 34.4614 164.715 35.9225C161.259 36.5181 159.282 40.0513 160.22 43.4307V43.4307C161.157 46.81 164.656 48.747 168.126 48.238C174.511 47.3013 181.036 47.587 187.35 49.1013C195.728 51.1111 203.457 55.2187 209.811 61.0379C216.165 66.8572 220.934 74.1969 223.67 82.3667C226.406 90.5365 227.02 99.2681 225.453 107.74C223.885 116.212 220.189 124.147 214.711 130.797C209.234 137.448 202.154 142.595 194.14 145.757C186.125 148.918 177.437 149.989 168.895 148.869C162.458 148.025 156.262 145.957 150.635 142.798C147.576 141.082 143.616 141.639 141.531 144.459V144.459Z" fill="white"/>
</svg>
