<svg width="24" height="17" viewBox="0 0 24 17" fill="none" xmlns="http://www.w3.org/2000/svg">
<g clip-path="url(#clip0_12_187)">
<path d="M24 9.20055C24 12.9406 20.8155 15.9725 16.8871 15.9725C12.9587 15.9725 9.7742 12.9406 9.7742 9.20055C9.7742 5.4605 12.9587 2.42857 16.8871 2.42857C20.8155 2.42857 24 5.4605 24 9.20055Z" fill="#0795F1"/>
<path fill-rule="evenodd" clip-rule="evenodd" d="M12.872 3.5166C11.899 3.81417 10.4478 4.04183 6.6777 4.06318L6.67714 3.96977C10.4454 3.94843 11.8844 3.72065 12.8428 3.42756C13.1256 3.34107 13.3684 3.24808 13.6181 3.15241C14.2126 2.92467 14.8466 2.68182 16.1535 2.47588L16.1691 2.56807C14.8728 2.77233 14.2528 3.00998 13.6613 3.23664C13.4097 3.33309 13.1632 3.42755 12.872 3.5166Z" fill="#0795F1"/>
<path fill-rule="evenodd" clip-rule="evenodd" d="M6.62985 5.41758C6.62985 5.41758 6.62982 5.41758 6.62903 5.37088C6.62823 5.32419 6.62827 5.32419 6.62827 5.32419L6.66153 5.32368C6.68328 5.32334 6.71523 5.32286 6.75607 5.32227C6.83775 5.32109 6.95496 5.31944 7.09713 5.31761C7.38147 5.31397 7.76564 5.30959 8.16495 5.30667C8.96159 5.30085 9.82403 5.30074 10.0694 5.32441C10.3342 5.34998 10.4927 5.51775 10.5639 5.71766C10.6343 5.91542 10.6217 6.14922 10.5445 6.32335L10.4555 6.28656C10.5234 6.13375 10.535 5.92388 10.4724 5.74802C10.4105 5.57429 10.2787 5.43849 10.0597 5.41735C9.82112 5.39433 8.96582 5.39423 8.16569 5.40007C7.76662 5.40299 7.38264 5.40737 7.09842 5.41102C6.95632 5.41284 6.83915 5.41449 6.75752 5.41566C6.71672 5.41626 6.68478 5.41674 6.66305 5.41707L6.62985 5.41758ZM10.2806 6.52049C10.3261 6.48905 10.3487 6.45919 10.3567 6.43223L10.4498 6.45789C10.4335 6.51267 10.3922 6.55823 10.3369 6.59643C10.2815 6.63479 10.208 6.66846 10.1202 6.69851C9.94432 6.75863 9.7018 6.80708 9.4068 6.84655C8.81618 6.92557 8.00513 6.96979 7.07249 6.99534C5.9762 7.02539 4.70803 7.02972 3.42815 7.03409C2.53111 7.03714 1.6283 7.04023 0.774893 7.0522L0.773487 6.9588C1.62946 6.94679 2.53309 6.94372 3.43027 6.94067C4.70866 6.93632 5.97397 6.93202 7.06975 6.90198C8.00184 6.87643 8.80845 6.8323 9.39351 6.75403C9.68632 6.71485 9.92119 6.66742 10.0878 6.61046C10.1712 6.58196 10.2353 6.55179 10.2806 6.52049ZM0.727106 8.45328C0.727106 8.45328 0.727028 8.45329 0.725802 8.4066C0.724576 8.35991 0.724656 8.35991 0.724656 8.35991L0.724892 8.3599L0.80202 8.35806C0.852567 8.35687 0.926777 8.35514 1.02145 8.35301C1.21078 8.34873 1.48193 8.34282 1.80927 8.33624C2.46392 8.32309 3.34329 8.30731 4.24213 8.29679C5.1409 8.28627 6.05942 8.281 6.79225 8.2889C7.15862 8.29285 7.47897 8.30009 7.72741 8.31163C7.9734 8.32306 8.15484 8.33888 8.23888 8.36163C8.55312 8.44672 8.73515 8.54963 8.83586 8.69745C8.93557 8.84382 8.94872 9.02536 8.95161 9.24667C8.95467 9.48171 8.87468 9.63695 8.74015 9.7495C8.60948 9.85888 8.4299 9.9253 8.24247 9.99161L8.23473 9.99442L4.83939 10.0412L4.83802 9.94781L8.21687 9.9012C8.40415 9.83478 8.56334 9.77388 8.67676 9.67898C8.78787 9.58604 8.85757 9.45789 8.85483 9.24785C8.85193 9.02401 8.83715 8.86936 8.755 8.74876C8.67384 8.62962 8.52005 8.53478 8.21274 8.45156C8.14138 8.43225 7.9719 8.41651 7.72275 8.40493C7.47605 8.39346 7.15706 8.38624 6.79116 8.3823C6.05946 8.37442 5.14183 8.37967 4.2433 8.39019C3.34483 8.4007 2.46575 8.41648 1.81128 8.42962C1.48404 8.4362 1.21296 8.44211 1.0237 8.44639C0.929075 8.44853 0.854899 8.45025 0.804384 8.45144L0.727106 8.45328Z" fill="#0795F1"/>
<path fill-rule="evenodd" clip-rule="evenodd" d="M6.62985 5.41757C6.62985 5.41757 6.62982 5.41757 6.62903 5.37087C6.62823 5.32418 6.62827 5.32418 6.62827 5.32418L6.66153 5.32367C6.68328 5.32333 6.71523 5.32285 6.75607 5.32226C6.83775 5.32107 6.95496 5.31943 7.09713 5.3176C7.38147 5.31396 7.76564 5.30958 8.16495 5.30666C8.96159 5.30083 9.82403 5.30073 10.0694 5.3244C10.3342 5.34997 10.4927 5.51774 10.5639 5.71765C10.6343 5.91541 10.6217 6.14921 10.5445 6.32334L10.4555 6.28654C10.5234 6.13374 10.535 5.92387 10.4724 5.748C10.4105 5.57429 10.2787 5.43848 10.0597 5.41734C9.82112 5.39432 8.96582 5.39421 8.16569 5.40006C7.76662 5.40298 7.38264 5.40736 7.09842 5.411C6.95632 5.41283 6.83915 5.41447 6.75752 5.41565C6.71672 5.41625 6.68478 5.41673 6.66305 5.41705L6.62985 5.41757ZM10.2806 6.52049C10.3261 6.48904 10.3487 6.45917 10.3567 6.43222L10.4498 6.45788C10.4335 6.51266 10.3922 6.55822 10.3369 6.59642C10.2815 6.63477 10.208 6.66845 10.1202 6.69849C9.94432 6.75862 9.7018 6.80708 9.4068 6.84654C8.81618 6.92556 8.00513 6.96977 7.07249 6.99534C5.9762 7.02538 4.70803 7.02971 3.42815 7.03408C2.53111 7.03714 1.6283 7.04022 0.774893 7.05218L0.773487 6.9588C1.62946 6.94678 2.53309 6.94371 3.43027 6.94066C4.70866 6.9363 5.97397 6.932 7.06975 6.90197C8.00184 6.87642 8.80845 6.83229 9.39351 6.75402C9.68632 6.71485 9.92119 6.66741 10.0878 6.61044C10.1712 6.58195 10.2353 6.55179 10.2806 6.52049ZM0.727106 8.45327C0.727106 8.45327 0.727028 8.45327 0.725802 8.40659C0.724576 8.3599 0.724656 8.35989 0.724656 8.35989H0.724892L0.80202 8.35805C0.852567 8.35686 0.926777 8.35513 1.02145 8.35299C1.21078 8.34872 1.48193 8.3428 1.80927 8.33622C2.46392 8.32308 3.34329 8.3073 4.24213 8.29678C5.1409 8.28626 6.05942 8.28099 6.79225 8.28889C7.15862 8.29284 7.47897 8.30008 7.72741 8.31162C7.9734 8.32305 8.15484 8.33887 8.23888 8.36162C8.55312 8.44671 8.73515 8.54961 8.83586 8.69744C8.93557 8.84381 8.94872 9.02535 8.95161 9.24666C8.95467 9.4817 8.87468 9.63694 8.74015 9.74949C8.60948 9.85887 8.4299 9.92529 8.24247 9.9916L8.23473 9.99441L4.83939 10.0412L4.83802 9.9478L8.21687 9.90119C8.40415 9.83477 8.56334 9.77387 8.67676 9.67897C8.78787 9.58603 8.85757 9.45788 8.85483 9.24784C8.85193 9.024 8.83715 8.86935 8.755 8.74876C8.67384 8.62961 8.52005 8.53476 8.21274 8.45155C8.14138 8.43224 7.9719 8.4165 7.72275 8.40492C7.47605 8.39346 7.15706 8.38623 6.79116 8.38229C6.05946 8.37441 5.14183 8.37966 4.2433 8.39018C3.34483 8.40069 2.46575 8.41647 1.81128 8.42961C1.48404 8.43619 1.21296 8.4421 1.0237 8.44638C0.929075 8.44851 0.854899 8.45024 0.804384 8.45143L0.727106 8.45327Z" fill="#0795F1"/>
<path fill-rule="evenodd" clip-rule="evenodd" d="M6.62985 5.41757C6.62985 5.41757 6.62982 5.41757 6.62903 5.37087C6.62824 5.32418 6.62827 5.32418 6.62827 5.32418L6.66154 5.32367C6.68328 5.32333 6.71524 5.32285 6.75607 5.32226C6.83775 5.32107 6.95496 5.31943 7.09713 5.3176C7.38147 5.31396 7.76564 5.30958 8.16495 5.30666C8.96159 5.30083 9.82403 5.30073 10.0694 5.3244C10.3342 5.34997 10.4927 5.51774 10.5639 5.71765C10.6343 5.91541 10.6217 6.14921 10.5445 6.32334L10.4555 6.28654C10.5234 6.13374 10.535 5.92387 10.4724 5.748C10.4105 5.57429 10.2787 5.43848 10.0597 5.41734C9.82113 5.39432 8.96583 5.39421 8.16569 5.40006C7.76661 5.40298 7.38264 5.40736 7.09842 5.411C6.95632 5.41283 6.83915 5.41447 6.75753 5.41565C6.71672 5.41625 6.68478 5.41673 6.66305 5.41705L6.62985 5.41757ZM10.3283 6.47434C10.3743 6.4425 10.3971 6.41243 10.4051 6.38551L10.4982 6.41118C10.4819 6.46599 10.4404 6.51172 10.3848 6.55022C10.329 6.58887 10.2552 6.62305 10.1666 6.65373C9.98951 6.71513 9.74525 6.76542 9.44794 6.80709C8.85279 6.89051 8.03571 6.94057 7.09699 6.97197C5.88529 7.01251 4.4671 7.02203 3.05672 7.0315C2.28191 7.0367 1.50946 7.04188 0.774893 7.05218L0.773487 6.9588C1.50976 6.94846 2.28306 6.94327 3.05823 6.93808C4.46758 6.92862 5.88312 6.91912 7.09363 6.87862C8.03174 6.84724 8.84441 6.7973 9.43403 6.71466C9.72909 6.6733 9.9659 6.62406 10.1339 6.56582C10.218 6.53668 10.2826 6.50601 10.3283 6.47434ZM0.726907 8.54669C0.726907 8.54669 0.72683 8.54669 0.725802 8.49999C0.724776 8.4533 0.724855 8.4533 0.724855 8.4533L0.72509 8.45329L0.801726 8.45176C0.851944 8.45077 0.925658 8.44933 1.01966 8.44756C1.20766 8.444 1.4768 8.43907 1.80138 8.43359C2.45054 8.42264 3.3215 8.40951 4.20868 8.40075C5.09579 8.392 5.99935 8.38762 6.7136 8.39418C7.07068 8.39747 7.38082 8.4035 7.61807 8.41311C7.73667 8.41791 7.83747 8.42363 7.91701 8.43038C7.99537 8.43704 8.05653 8.44496 8.09371 8.45503C8.35303 8.52524 8.56613 8.60286 8.71493 8.72346C8.86716 8.84684 8.94855 9.0121 8.95161 9.24666C8.95465 9.48076 8.87769 9.64591 8.74457 9.76379C8.6138 9.8797 8.43336 9.94584 8.23754 9.9931L8.2321 9.99441L4.83939 10.0412L4.83802 9.9478L8.21948 9.90119C8.40838 9.85514 8.56757 9.79386 8.67912 9.69504C8.78938 9.59734 8.85758 9.45891 8.85484 9.24784C8.8521 9.03725 8.78094 8.89893 8.6527 8.795C8.52103 8.68828 8.32572 8.61486 8.06758 8.54496C8.04007 8.53752 7.98717 8.53011 7.90852 8.52343C7.83106 8.51685 7.7319 8.5112 7.61402 8.50643C7.3783 8.49688 7.06937 8.49087 6.71268 8.48759C5.99939 8.48102 5.09658 8.4854 4.20966 8.49416C3.32281 8.50291 2.45209 8.51604 1.80307 8.52699C1.47857 8.53246 1.2095 8.53739 1.02155 8.54094C0.927585 8.54272 0.853898 8.54416 0.803707 8.54515L0.726907 8.54669Z" fill="#0795F1"/>
<path d="M2.80646 4.71703C2.80646 4.33013 3.13142 4.01648 3.53226 4.01648H4.40323C4.80408 4.01648 5.12904 4.33013 5.12904 4.71703C5.12904 5.10393 4.80408 5.41758 4.40323 5.41758H3.53226C3.13142 5.41758 2.80646 5.10393 2.80646 4.71703Z" fill="#0795F1"/>
<path d="M1.35484 10.6951C1.35484 10.3082 1.6798 9.99451 2.08065 9.99451C2.4815 9.99451 2.80646 10.3082 2.80646 10.6951C2.80646 11.0819 2.4815 11.3956 2.08065 11.3956C1.6798 11.3956 1.35484 11.0819 1.35484 10.6951Z" fill="#0795F1"/>
<path d="M4.25806 10.6016C4.25806 10.2148 4.58301 9.90109 4.98386 9.90109H10.5968C10.9976 9.90109 11.3226 10.2148 11.3226 10.6016C11.3226 10.9885 10.9976 11.3022 10.5968 11.3022H4.98386C4.58301 11.3022 4.25806 10.9885 4.25806 10.6016Z" fill="#0795F1"/>
<path d="M0 7.70604C0 7.21597 0.411609 6.81868 0.919355 6.81868H9.62903C10.1368 6.81868 10.5484 7.21597 10.5484 7.70604C10.5484 8.19612 10.1368 8.5934 9.62903 8.5934H0.919355C0.411609 8.5934 0 8.19612 0 7.70604Z" fill="#0795F1"/>
<path d="M6 4.67033C6 4.25763 6.34662 3.92308 6.77419 3.92308H15.7742C16.2017 3.92308 16.5484 4.25763 16.5484 4.67033C16.5484 5.08303 16.2017 5.41759 15.7742 5.41759H6.77419C6.34662 5.41759 6 5.08303 6 4.67033Z" fill="#0795F1"/>
<path d="M10.2581 5.13736C10.2581 4.72466 10.6047 4.39011 11.0323 4.39011H11.6129C12.0405 4.39011 12.3871 4.72466 12.3871 5.13736C12.3871 5.55006 12.0405 5.88461 11.6129 5.88461H11.0323C10.6047 5.88461 10.2581 5.55006 10.2581 5.13736Z" fill="#0795F1"/>
<path d="M10.0225 4.70761C9.97781 4.29718 10.2862 3.92947 10.7116 3.88633L11.289 3.82773C11.7142 3.78458 12.0951 4.08233 12.1398 4.49276C12.1846 4.9032 11.8761 5.2709 11.4508 5.31405L10.8734 5.37264C10.4481 5.41579 10.0672 5.11804 10.0225 4.70761Z" fill="#0795F1"/>
<path d="M10.9892 4.58849C10.9061 4.18366 11.1787 3.79046 11.5981 3.71023L12.1677 3.60129C12.5871 3.52108 12.9945 3.78422 13.0776 4.18905C13.1607 4.59387 12.8881 4.98707 12.4687 5.0673L11.8992 5.17624C11.4797 5.25646 11.0723 4.99331 10.9892 4.58849Z" fill="#0795F1"/>
<path d="M12.1205 4.46982C12.0005 4.07371 12.2359 3.65869 12.6463 3.54286L13.2036 3.38556C13.614 3.26973 14.044 3.49693 14.164 3.89304C14.284 4.28915 14.0486 4.70416 13.6382 4.81999L13.0809 4.9773C12.6706 5.09313 12.2405 4.86592 12.1205 4.46982Z" fill="#0795F1"/>
<path d="M10.5484 5.88461C10.5484 5.47191 10.895 5.13736 11.3226 5.13736H11.9032C12.3308 5.13736 12.6774 5.47191 12.6774 5.88461C12.6774 6.29731 12.3308 6.63187 11.9032 6.63187H11.3226C10.895 6.63187 10.5484 6.29731 10.5484 5.88461Z" fill="#0795F1"/>
<path d="M9.87097 7.19231C9.87097 6.77961 10.2176 6.44505 10.6452 6.44505H11.2258C11.6534 6.44505 12 6.77961 12 7.19231C12 7.605 11.6534 7.93956 11.2258 7.93956H10.6452C10.2176 7.93956 9.87097 7.605 9.87097 7.19231Z" fill="#0795F1"/>
<path d="M9.3871 7.37912C9.3871 6.96642 9.73375 6.63187 10.1613 6.63187H10.7419C11.1695 6.63187 11.5161 6.96642 11.5161 7.37912C11.5161 7.79182 11.1695 8.12637 10.7419 8.12637H10.1613C9.73375 8.12637 9.3871 7.79182 9.3871 7.37912Z" fill="#0795F1"/>
<path d="M8.40882 7.60338C8.36119 7.19325 8.66703 6.82351 9.09195 6.77753L9.66898 6.71511C10.0939 6.66913 10.477 6.96433 10.5246 7.37446C10.5722 7.78459 10.2664 8.15433 9.84144 8.20031L9.26443 8.26274C8.83952 8.30871 8.45644 8.01351 8.40882 7.60338Z" fill="#0795F1"/>
<path d="M6.67741 13.6841C6.67741 13.2972 7.00237 12.9835 7.40322 12.9835H13.0161C13.417 12.9835 13.7419 13.2972 13.7419 13.6841C13.7419 14.071 13.417 14.3846 13.0161 14.3846H7.40322C7.00237 14.3846 6.67741 14.071 6.67741 13.6841Z" fill="#0795F1"/>
<path fill-rule="evenodd" clip-rule="evenodd" d="M10.1876 11.5123C10.3645 11.6897 10.4172 11.9314 10.4002 12.2551L10.4001 12.2567L10.3999 12.2583C10.3563 12.612 10.2544 12.8018 10.0916 12.9161C10.0118 12.9721 9.92023 13.0078 9.82113 13.0373C9.76219 13.0548 9.69765 13.071 9.63035 13.0877C9.58655 13.0986 9.54159 13.1098 9.49622 13.122L9.47045 13.0319C9.51966 13.0188 9.56593 13.0072 9.60996 12.9963C9.67496 12.9802 9.7351 12.9651 9.79268 12.948C9.88742 12.9198 9.96735 12.8878 10.0347 12.8405C10.166 12.7483 10.2614 12.5895 10.3036 12.2488C10.3198 11.9362 10.2672 11.7268 10.1178 11.5771C9.9661 11.4248 9.70577 11.3251 9.28214 11.2548L9.29851 11.1628C9.72581 11.2336 10.013 11.3371 10.1876 11.5123Z" fill="#0795F1"/>
<path fill-rule="evenodd" clip-rule="evenodd" d="M12.4607 14.8397C11.7366 14.6595 10.7894 14.4725 9.8576 14.3687L9.86873 14.276C10.8057 14.3803 11.7572 14.5683 12.4848 14.7493C12.8486 14.8397 13.1572 14.9287 13.3804 15.0048C13.4919 15.0429 13.5831 15.0781 13.6495 15.109C13.6827 15.1244 13.7108 15.1392 13.7325 15.1534C13.7524 15.1664 13.7739 15.1831 13.785 15.204L13.6989 15.2466C13.6992 15.247 13.6991 15.247 13.6986 15.2466C13.6972 15.2451 13.692 15.2398 13.6783 15.2309C13.662 15.2202 13.6386 15.2075 13.6075 15.1931C13.5456 15.1643 13.4582 15.1305 13.3482 15.0929C13.1285 15.0179 12.8229 14.9297 12.4607 14.8397Z" fill="#0795F1"/>
<path d="M10.9152 13.6374L13.3672 14.1177L12.9677 14.8516L10.5157 14.3713L10.9152 13.6374Z" fill="#0795F1"/>
<path d="M11.4828 13.6105L13.8628 14.3556L13.5941 15.1552L11.2141 14.4101L11.4828 13.6105Z" fill="#0795F1"/>
<path d="M9.3871 13.2771L11.4151 11.8626L11.9252 12.544L9.8972 13.9585L9.3871 13.2771Z" fill="#0795F1"/>
<path d="M10.0645 13.5785L10.5463 11.2088L11.401 11.3707L10.9192 13.7404L10.0645 13.5785Z" fill="#0795F1"/>
<path d="M11.4033 12.7284L9.58064 11.0739L10.1774 10.4615L11.9999 12.116L11.4033 12.7284Z" fill="#0795F1"/>
<path d="M9.67956 8.46203C9.46892 8.82115 8.9965 8.94742 8.62444 8.74407L8.11917 8.46792C7.7471 8.26458 7.61628 7.8086 7.82696 7.44948C8.03764 7.09036 8.51005 6.96408 8.88212 7.16744L9.38739 7.44359C9.75949 7.64693 9.89023 8.10291 9.67956 8.46203Z" fill="#0795F1"/>
<path d="M9.67527 10.1193C9.24812 10.1378 8.88631 9.81862 8.86716 9.40633L8.84114 8.84644C8.82198 8.43416 9.15271 8.08495 9.57987 8.06645C10.007 8.04796 10.3688 8.36719 10.3879 8.77947L10.414 9.33934C10.4331 9.75165 10.1024 10.1008 9.67527 10.1193Z" fill="#0795F1"/>
<path d="M9.55343 10.922C9.25757 11.2105 8.77546 11.2128 8.47661 10.9273C8.17775 10.6417 8.17533 10.1764 8.47119 9.88793L8.88002 9.48936C9.17588 9.20087 9.658 9.19853 9.95681 9.48413C10.2557 9.76968 10.2582 10.235 9.96223 10.5235L9.55343 10.922Z" fill="#0795F1"/>
<path d="M16.0645 0.747253C16.0645 0.334556 16.4112 0 16.8387 0C17.2663 0 17.6129 0.334556 17.6129 0.747253V2.52198C17.6129 2.93468 17.2663 3.26923 16.8387 3.26923C16.4112 3.26923 16.0645 2.93468 16.0645 2.52198V0.747253Z" fill="#0795F1"/>
<path d="M15 0.700549C15 0.313646 15.325 0 15.7258 0H17.8548C18.2557 0 18.5806 0.313646 18.5806 0.700549C18.5806 1.08745 18.2557 1.4011 17.8548 1.4011H15.7258C15.325 1.4011 15 1.08745 15 0.700549Z" fill="#0795F1"/>
<ellipse cx="17.2258" cy="8.96703" rx="1.06452" ry="1.02747" fill="white"/>
<path d="M12.7513 13.1882C10.8478 14.7337 15.0678 10.342 16.5315 8.8309C16.7875 8.56661 17.2222 8.57919 17.4688 8.85409V8.85409C17.7151 9.12869 17.6649 9.54724 17.3613 9.75876C16.4059 10.4243 14.4175 11.8356 12.7513 13.1882Z" fill="white"/>
<path d="M13.7089 13.4773C13.5025 13.7469 13.5594 14.1366 13.8543 14.3051C14.5669 14.7121 15.3595 14.977 16.1848 15.0815C17.2182 15.2123 18.2691 15.0873 19.2386 14.7182C20.2082 14.3491 21.0646 13.748 21.7272 12.9715C22.3898 12.195 22.8369 11.2686 23.0265 10.2794C23.2161 9.29022 23.1419 8.27074 22.8109 7.31685C22.4799 6.36295 21.903 5.50599 21.1344 4.82654C20.3658 4.14709 19.4308 3.66749 18.4173 3.43284C17.6009 3.24384 16.7553 3.21875 15.9323 3.3567C15.6043 3.4117 15.4162 3.74746 15.5081 4.06714V4.06714C15.5977 4.37867 15.9202 4.55732 16.2408 4.51C16.8681 4.41743 17.5099 4.44269 18.1306 4.58638C18.9414 4.7741 19.6894 5.15778 20.3043 5.70134C20.9191 6.2449 21.3807 6.93047 21.6455 7.69359C21.9103 8.4567 21.9696 9.27229 21.818 10.0636C21.6663 10.855 21.3086 11.5961 20.7785 12.2173C20.2484 12.8385 19.5633 13.3194 18.7877 13.6146C18.0121 13.9099 17.1713 14.01 16.3446 13.9053C15.7124 13.8253 15.1042 13.6275 14.5531 13.325C14.2693 13.1692 13.9057 13.2203 13.7089 13.4773V13.4773Z" fill="white"/>
</g>
<defs>
<clipPath id="clip0_12_187">
<rect width="24" height="17" fill="white"/>
</clipPath>
</defs>
</svg>
