<svg width="502" height="363" viewBox="0 0 502 363" fill="none" xmlns="http://www.w3.org/2000/svg">
<g clip-path="url(#clip0_118_3)">
<path d="M502 196.459C502 276.321 435.39 341.06 353.222 341.06C271.054 341.06 204.444 276.321 204.444 196.459C204.444 116.598 271.054 51.8571 353.222 51.8571C435.39 51.8571 502 116.598 502 196.459Z" fill="#0795F1"/>
<path fill-rule="evenodd" clip-rule="evenodd" d="M269.24 75.0899C248.887 81.4438 218.534 86.305 139.675 86.761L139.663 84.7665C218.483 84.3107 248.581 79.4469 268.629 73.1886C274.543 71.3419 279.622 69.3561 284.845 67.3134C297.281 62.4504 310.542 57.2649 337.876 52.8674L338.204 54.8359C311.09 59.1975 298.121 64.2721 285.749 69.1118C280.486 71.1713 275.331 73.1884 269.24 75.0899Z" fill="#0795F1"/>
<path fill-rule="evenodd" clip-rule="evenodd" d="M138.674 115.681C138.674 115.681 138.674 115.681 138.657 114.684C138.641 113.687 138.641 113.687 138.641 113.687L139.337 113.676C139.792 113.669 140.46 113.659 141.315 113.646C143.023 113.621 145.475 113.586 148.448 113.547C154.396 113.469 162.431 113.375 170.784 113.313C187.447 113.189 205.486 113.186 210.617 113.692C216.158 114.238 219.473 117.82 220.961 122.089C222.435 126.311 222.171 131.304 220.556 135.022L218.694 134.236C220.115 130.974 220.358 126.492 219.048 122.737C217.753 119.028 214.996 116.128 210.415 115.676C205.425 115.185 187.535 115.183 170.799 115.307C162.452 115.37 154.42 115.463 148.475 115.541C145.503 115.58 143.052 115.615 141.345 115.64C140.491 115.653 139.823 115.663 139.369 115.67L138.674 115.681ZM215.036 139.232C215.988 138.56 216.461 137.923 216.627 137.347L218.574 137.895C218.234 139.065 217.37 140.037 216.214 140.853C215.054 141.672 213.518 142.391 211.68 143.033C208.002 144.316 202.929 145.351 196.759 146.194C184.405 147.881 167.441 148.825 147.933 149.371C125.002 150.013 98.4764 150.105 71.7056 150.198C52.9424 150.264 34.0587 150.329 16.2083 150.585L16.1789 148.591C34.083 148.334 52.9839 148.269 71.75 148.204C98.4896 148.111 124.956 148.019 147.876 147.377C167.372 146.832 184.244 145.89 196.481 144.218C202.606 143.382 207.518 142.369 211.004 141.153C212.747 140.544 214.089 139.9 215.036 139.232ZM15.2087 180.502C15.2087 180.502 15.2071 180.503 15.1815 179.506C15.1558 178.509 15.1575 178.509 15.1575 178.509L15.1624 178.508L16.7757 178.469C17.8329 178.444 19.3852 178.407 21.3654 178.361C25.3255 178.27 30.9971 178.144 37.8439 178.003C51.537 177.722 69.9306 177.385 88.7313 177.161C107.531 176.936 126.743 176.824 142.071 176.992C149.734 177.077 156.435 177.231 161.632 177.478C166.777 177.722 170.572 178.059 172.33 178.545C178.903 180.362 182.71 182.56 184.817 185.716C186.902 188.841 187.178 192.718 187.238 197.443C187.302 202.462 185.629 205.777 182.815 208.181C180.082 210.516 176.325 211.934 172.405 213.35L172.243 213.41L101.224 214.409L101.195 212.415L171.87 211.42C175.787 210.002 179.117 208.701 181.489 206.675C183.813 204.69 185.271 201.954 185.214 197.469C185.153 192.689 184.844 189.387 183.126 186.812C181.428 184.268 178.211 182.243 171.783 180.466C170.291 180.053 166.746 179.717 161.534 179.47C156.374 179.225 149.702 179.071 142.049 178.987C126.744 178.818 107.55 178.931 88.7558 179.155C69.9628 179.38 51.5754 179.717 37.886 179.997C31.0412 180.138 25.3712 180.264 21.4125 180.355C19.4333 180.401 17.8817 180.438 16.8251 180.463L15.2087 180.502Z" fill="#0795F1"/>
<path fill-rule="evenodd" clip-rule="evenodd" d="M138.674 115.681C138.674 115.681 138.674 115.681 138.657 114.684C138.641 113.687 138.641 113.687 138.641 113.687L139.337 113.676C139.792 113.669 140.46 113.659 141.315 113.646C143.023 113.621 145.475 113.586 148.448 113.547C154.396 113.469 162.431 113.375 170.784 113.313C187.447 113.188 205.486 113.186 210.617 113.692C216.158 114.238 219.473 117.82 220.961 122.089C222.435 126.311 222.171 131.304 220.556 135.022L218.694 134.236C220.115 130.974 220.358 126.492 219.048 122.737C217.753 119.027 214.996 116.128 210.415 115.676C205.425 115.185 187.535 115.182 170.799 115.307C162.452 115.37 154.42 115.463 148.475 115.541C145.503 115.58 143.052 115.615 141.345 115.64C140.491 115.653 139.823 115.663 139.369 115.67L138.674 115.681ZM215.036 139.232C215.988 138.56 216.461 137.922 216.627 137.347L218.574 137.895C218.234 139.064 217.37 140.037 216.214 140.853C215.054 141.672 213.518 142.391 211.68 143.033C208.002 144.316 202.929 145.351 196.759 146.194C184.405 147.881 167.441 148.825 147.933 149.371C125.002 150.013 98.4764 150.105 71.7056 150.198C52.9424 150.264 34.0587 150.329 16.2083 150.585L16.1789 148.591C34.083 148.334 52.9839 148.269 71.75 148.204C98.4896 148.111 124.956 148.019 147.876 147.377C167.372 146.832 184.244 145.89 196.481 144.218C202.606 143.382 207.518 142.369 211.004 141.153C212.747 140.544 214.089 139.9 215.036 139.232ZM15.2087 180.502C15.2087 180.502 15.2071 180.502 15.1815 179.505C15.1558 178.509 15.1575 178.508 15.1575 178.508H15.1624L16.7757 178.469C17.8329 178.444 19.3852 178.407 21.3654 178.361C25.3255 178.27 30.9971 178.143 37.8439 178.003C51.537 177.722 69.9306 177.385 88.7313 177.161C107.531 176.936 126.743 176.824 142.071 176.992C149.734 177.077 156.435 177.231 161.632 177.478C166.777 177.722 170.572 178.059 172.33 178.545C178.903 180.362 182.71 182.559 184.817 185.716C186.902 188.841 187.178 192.718 187.238 197.443C187.302 202.462 185.629 205.777 182.815 208.18C180.082 210.516 176.325 211.934 172.405 213.35L172.243 213.41L101.224 214.409L101.195 212.415L171.87 211.42C175.787 210.001 179.117 208.701 181.489 206.675C183.813 204.69 185.271 201.954 185.214 197.469C185.153 192.689 184.844 189.387 183.126 186.812C181.428 184.268 178.211 182.242 171.783 180.466C170.291 180.053 166.746 179.717 161.534 179.47C156.374 179.225 149.702 179.071 142.049 178.987C126.744 178.818 107.55 178.93 88.7558 179.155C69.9628 179.38 51.5754 179.716 37.886 179.997C31.0412 180.138 25.3712 180.264 21.4125 180.355C19.4333 180.401 17.8817 180.438 16.8251 180.463L15.2087 180.502Z" fill="#0795F1"/>
<path fill-rule="evenodd" clip-rule="evenodd" d="M138.674 115.681C138.674 115.681 138.674 115.681 138.657 114.684C138.641 113.687 138.641 113.687 138.641 113.687L139.337 113.676C139.792 113.669 140.46 113.659 141.315 113.646C143.023 113.621 145.475 113.586 148.448 113.547C154.396 113.469 162.431 113.375 170.784 113.313C187.447 113.188 205.486 113.186 210.617 113.692C216.158 114.238 219.473 117.82 220.961 122.089C222.435 126.311 222.171 131.304 220.556 135.022L218.694 134.236C220.115 130.974 220.358 126.492 219.048 122.737C217.753 119.027 214.996 116.128 210.415 115.676C205.425 115.185 187.535 115.182 170.799 115.307C162.452 115.37 154.42 115.463 148.475 115.541C145.503 115.58 143.052 115.615 141.345 115.64C140.491 115.653 139.823 115.663 139.369 115.67L138.674 115.681ZM216.034 138.246C216.996 137.566 217.473 136.924 217.639 136.35L219.587 136.898C219.246 138.068 218.378 139.045 217.216 139.866C216.048 140.692 214.504 141.422 212.652 142.077C208.947 143.388 203.838 144.462 197.619 145.352C185.171 147.133 168.08 148.202 148.445 148.872C123.101 149.738 93.437 149.941 63.9364 150.143C47.7301 150.254 31.573 150.365 16.2082 150.585L16.1788 148.591C31.5792 148.37 47.7542 148.259 63.968 148.148C93.4469 147.946 123.055 147.744 148.375 146.879C167.997 146.209 184.996 145.142 197.328 143.378C203.5 142.495 208.453 141.443 211.967 140.2C213.726 139.577 215.079 138.922 216.034 138.246ZM15.2045 182.497C15.2045 182.497 15.2029 182.497 15.1814 181.5C15.16 180.503 15.1616 180.503 15.1616 180.503L15.1665 180.503L16.7695 180.47C17.8199 180.449 19.3618 180.418 21.3279 180.38C25.2603 180.304 30.8898 180.199 37.6789 180.082C51.2572 179.848 69.4748 179.568 88.0316 179.381C106.587 179.194 125.486 179.1 140.426 179.241C147.895 179.311 154.382 179.439 159.345 179.645C161.825 179.747 163.934 179.869 165.597 180.013C167.237 180.156 168.516 180.325 169.293 180.54C174.718 182.039 179.175 183.697 182.287 186.272C185.472 188.906 187.174 192.435 187.238 197.443C187.301 202.442 185.692 205.969 182.907 208.486C180.172 210.961 176.398 212.373 172.302 213.382L172.188 213.41L101.224 214.409L101.195 212.415L171.924 211.42C175.875 210.436 179.205 209.128 181.538 207.018C183.845 204.931 185.271 201.976 185.214 197.469C185.156 192.972 183.668 190.019 180.986 187.799C178.232 185.521 174.146 183.953 168.747 182.46C168.172 182.301 167.065 182.143 165.42 182C163.8 181.86 161.726 181.739 159.26 181.637C154.33 181.434 147.868 181.305 140.407 181.235C125.487 181.095 106.604 181.188 88.0522 181.375C69.5021 181.562 51.2896 181.843 37.7144 182.076C30.9268 182.193 25.2988 182.298 21.3676 182.374C19.4021 182.412 17.8608 182.443 16.8109 182.464L15.2045 182.497Z" fill="#0795F1"/>
<path d="M58.7016 100.723C58.7016 92.4611 65.4987 85.7637 73.8831 85.7637H92.1008C100.485 85.7637 107.282 92.4611 107.282 100.723C107.282 108.984 100.485 115.681 92.1008 115.681H73.8831C65.4987 115.681 58.7016 108.984 58.7016 100.723Z" fill="#0795F1"/>
<path d="M28.3387 228.371C28.3387 220.11 35.1357 213.412 43.5202 213.412C51.9046 213.412 58.7016 220.11 58.7016 228.371C58.7016 236.632 51.9046 243.33 43.5202 243.33C35.1357 243.33 28.3387 236.632 28.3387 228.371Z" fill="#0795F1"/>
<path d="M89.0645 226.376C89.0645 218.115 95.8615 211.418 104.246 211.418H221.649C230.033 211.418 236.831 218.115 236.831 226.376C236.831 234.638 230.033 241.335 221.649 241.335H104.246C95.8615 241.335 89.0645 234.638 89.0645 226.376Z" fill="#0795F1"/>
<path d="M0 164.547C0 154.082 8.60948 145.599 19.2298 145.599H201.407C212.028 145.599 220.637 154.082 220.637 164.547C220.637 175.011 212.028 183.494 201.407 183.494H19.2298C8.60948 183.494 0 175.011 0 164.547Z" fill="#0795F1"/>
<path d="M125.5 99.7253C125.5 90.913 132.75 83.7692 141.694 83.7692H329.944C338.886 83.7692 346.137 90.913 346.137 99.7253C346.137 108.538 338.886 115.681 329.944 115.681H141.694C132.75 115.681 125.5 108.538 125.5 99.7253Z" fill="#0795F1"/>
<path d="M214.564 109.698C214.564 100.885 221.815 93.7418 230.758 93.7418H242.903C251.846 93.7418 259.097 100.885 259.097 109.698C259.097 118.51 251.846 125.654 242.903 125.654H230.758C221.815 125.654 214.564 118.51 214.564 109.698Z" fill="#0795F1"/>
<path d="M209.638 100.521C208.702 91.7574 215.154 83.9059 224.05 82.9846L236.128 81.7334C245.023 80.812 252.99 87.1699 253.925 95.9337C254.86 104.698 248.409 112.549 239.513 113.471L227.434 114.722C218.54 115.643 210.573 109.285 209.638 100.521Z" fill="#0795F1"/>
<path d="M229.857 97.9777C228.119 89.3335 233.821 80.9374 242.594 79.2243L254.508 76.8982C263.281 75.1853 271.803 80.8042 273.539 89.4484C275.278 98.0926 269.576 106.489 260.803 108.202L248.891 110.528C240.118 112.241 231.596 106.622 229.857 97.9777Z" fill="#0795F1"/>
<path d="M253.52 95.4437C251.01 86.9856 255.935 78.1238 264.518 75.6504L276.175 72.2916C284.76 69.8183 293.753 74.6697 296.263 83.1278C298.773 91.5859 293.85 100.447 285.266 102.921L273.608 106.28C265.026 108.753 256.03 103.902 253.52 95.4437Z" fill="#0795F1"/>
<path d="M220.637 125.654C220.637 116.842 227.888 109.698 236.831 109.698H248.976C257.919 109.698 265.169 116.842 265.169 125.654C265.169 134.466 257.919 141.61 248.976 141.61H236.831C227.888 141.61 220.637 134.466 220.637 125.654Z" fill="#0795F1"/>
<path d="M206.468 153.577C206.468 144.765 213.718 137.621 222.661 137.621H234.806C243.749 137.621 251 144.765 251 153.577C251 162.389 243.749 169.533 234.806 169.533H222.661C213.718 169.533 206.468 162.389 206.468 153.577Z" fill="#0795F1"/>
<path d="M196.347 157.566C196.347 148.754 203.597 141.61 212.54 141.61H224.685C233.628 141.61 240.879 148.754 240.879 157.566C240.879 166.378 233.628 173.522 224.685 173.522H212.54C203.597 173.522 196.347 166.378 196.347 157.566Z" fill="#0795F1"/>
<path d="M175.885 162.355C174.888 153.597 181.286 145.702 190.173 144.72L202.243 143.387C211.132 142.406 219.143 148.709 220.139 157.467C221.135 166.224 214.739 174.119 205.85 175.101L193.781 176.434C184.893 177.415 176.881 171.112 175.885 162.355Z" fill="#0795F1"/>
<path d="M139.669 292.195C139.669 283.934 146.466 277.236 154.851 277.236H272.254C280.638 277.236 287.435 283.934 287.435 292.195C287.435 300.456 280.638 307.154 272.254 307.154H154.851C146.466 307.154 139.669 300.456 139.669 292.195Z" fill="#0795F1"/>
<path fill-rule="evenodd" clip-rule="evenodd" d="M213.091 245.821C216.791 249.61 217.892 254.77 217.538 261.683L217.536 261.717L217.532 261.751C216.619 269.304 214.488 273.355 211.083 275.796C209.413 276.993 207.498 277.755 205.425 278.385C204.193 278.758 202.842 279.103 201.435 279.46C200.519 279.694 199.578 279.933 198.629 280.192L198.09 278.269C199.12 277.99 200.087 277.743 201.008 277.509C202.368 277.164 203.626 276.843 204.83 276.478C206.812 275.876 208.484 275.192 209.893 274.183C212.64 272.214 214.633 268.823 215.518 261.547C215.856 254.872 214.755 250.402 211.631 247.205C208.458 243.952 203.012 241.824 194.151 240.324L194.494 238.357C203.431 239.869 209.439 242.081 213.091 245.821Z" fill="#0795F1"/>
<path fill-rule="evenodd" clip-rule="evenodd" d="M260.637 316.871C245.49 313.024 225.679 309.031 206.188 306.815L206.421 304.834C226.019 307.062 245.921 311.075 261.141 314.94C268.75 316.871 275.205 318.772 279.873 320.397C282.205 321.209 284.114 321.961 285.502 322.621C286.197 322.95 286.784 323.267 287.239 323.571C287.654 323.848 288.103 324.203 288.336 324.65L286.535 325.559C286.541 325.569 286.539 325.569 286.529 325.559C286.5 325.527 286.391 325.414 286.106 325.224C285.763 324.997 285.274 324.725 284.624 324.418C283.328 323.802 281.501 323.08 279.199 322.278C274.604 320.677 268.212 318.794 260.637 316.871Z" fill="#0795F1"/>
<path d="M228.309 291.198L279.598 301.454L271.242 317.126L219.953 306.871L228.309 291.198Z" fill="#0795F1"/>
<path d="M240.183 290.623L289.964 306.534L284.342 323.609L234.561 307.698L240.183 290.623Z" fill="#0795F1"/>
<path d="M196.347 283.505L238.766 253.302L249.435 267.852L207.016 298.055L196.347 283.505Z" fill="#0795F1"/>
<path d="M210.516 289.941L220.593 239.341L238.47 242.797L228.394 293.398L210.516 289.941Z" fill="#0795F1"/>
<path d="M238.519 271.789L200.395 236.461L212.876 223.385L250.998 258.713L238.519 271.789Z" fill="#0795F1"/>
<path d="M202.464 180.689C198.058 188.358 188.177 191.054 180.394 186.712L169.826 180.815C162.043 176.473 159.307 166.737 163.714 159.068C168.12 151.4 178.002 148.704 185.784 153.046L196.353 158.943C204.136 163.285 206.871 173.021 202.464 180.689Z" fill="#0795F1"/>
<path d="M202.374 216.077C193.44 216.472 185.872 209.656 185.472 200.853L184.927 188.897C184.526 180.094 191.444 172.637 200.379 172.242C209.314 171.848 216.88 178.664 217.281 187.468L217.825 199.422C218.226 208.226 211.31 215.682 202.374 216.077Z" fill="#0795F1"/>
<path d="M199.826 233.218C193.637 239.377 183.553 239.426 177.302 233.329C171.051 227.232 171.001 217.295 177.189 211.136L185.74 202.626C191.929 196.466 202.013 196.416 208.263 202.514C214.516 208.611 214.567 218.548 208.377 224.707L199.826 233.218Z" fill="#0795F1"/>
<path d="M336.016 15.956C336.016 7.14376 343.267 0 352.21 0C361.153 0 368.403 7.14376 368.403 15.956V53.8516C368.403 62.664 361.153 69.8077 352.21 69.8077C343.267 69.8077 336.016 62.664 336.016 53.8516V15.956Z" fill="#0795F1"/>
<path d="M313.75 14.9588C313.75 6.69727 320.547 0 328.931 0H373.464C381.848 0 388.645 6.69727 388.645 14.9588C388.645 23.2202 381.848 29.9176 373.464 29.9176H328.931C320.547 29.9176 313.75 23.2202 313.75 14.9588Z" fill="#0795F1"/>
<ellipse cx="363.944" cy="187.843" rx="22.2661" ry="21.9396" fill="white"/>
<path d="M290.117 257.733C263.454 279.711 319.559 217.466 341.099 193.826C345.328 189.184 352.71 189.291 356.863 194.016V194.016C361.01 198.736 360.081 205.957 354.9 209.527C340.579 219.395 313.077 238.807 290.117 257.733Z" fill="white"/>
<path d="M288.351 284.229C284.993 288.694 285.928 295.083 290.705 297.979C305.325 306.842 321.721 312.588 338.828 314.793C359.321 317.435 380.161 314.91 399.388 307.455C418.614 300 435.596 287.861 448.737 272.179C461.877 256.497 470.744 237.787 474.503 217.809C478.263 197.831 476.791 177.242 470.227 157.977C463.663 138.711 452.223 121.404 436.981 107.682C421.739 93.9596 403.197 84.2735 383.099 79.5344C366.282 75.569 348.837 75.1763 331.922 78.3363C326.459 79.3568 323.322 84.9522 324.832 90.3006L325.915 94.1377C327.406 99.4197 332.872 102.459 338.285 101.552C351.248 99.3787 364.56 99.8006 377.414 102.832C393.493 106.623 408.326 114.372 420.52 125.349C432.713 136.327 441.866 150.173 447.117 165.585C452.368 180.997 453.545 197.469 450.537 213.451C447.53 229.434 440.436 244.401 429.924 256.947C419.412 269.493 405.826 279.204 390.445 285.168C375.063 291.132 358.392 293.152 341.997 291.038C328.881 289.347 316.286 285.055 304.965 278.458C300.248 275.71 294.097 276.586 290.816 280.949L288.351 284.229Z" fill="white"/>
</g>
<defs>
<clipPath id="clip0_118_3">
<rect width="502" height="363" fill="white"/>
</clipPath>
</defs>
</svg>
