<svg width="141" height="97" viewBox="0 0 141 97" fill="none" xmlns="http://www.w3.org/2000/svg">
<path d="M37.2764 28.1708L37.2037 28.3889C37.0688 28.7937 37 29.2175 37 29.6441L37 30.3559C37 30.7825 37.0688 31.2063 37.2037 31.6111L37.2852 31.8557C37.4265 32.2794 37.6644 32.6644 37.9802 32.9802C38.3213 33.3213 38.7426 33.5711 39.2054 33.7067L39.5928 33.8202C39.9998 33.9395 40.4217 34 40.8458 34H55.2094C55.7331 34 56.2533 34.0844 56.75 34.25C57.2467 34.4156 57.7669 34.5 58.2906 34.5H60.5021C60.8328 34.5 61.1622 34.5406 61.483 34.6208C62.4591 34.8648 63.3092 35.4639 63.8674 36.301L64 36.5L64.1292 36.7584C64.373 37.2461 64.5 37.7839 64.5 38.3292C64.5 39.0892 64.2535 39.8287 63.7975 40.4367L63.6853 40.5862C63.2371 41.1839 62.6331 41.6468 61.9395 41.9242L61.5179 42.0928C60.8455 42.3618 60.1279 42.5 59.4037 42.5H56.5H51H42.5L8.5 43H7.55229C6.86027 43 6.17776 43.1611 5.5588 43.4706C4.86496 43.8175 4.26828 44.3476 3.83798 44.993C3.61548 45.3268 3.43573 45.6928 3.30889 46.0733L3.27394 46.1782C3.0925 46.7225 3 47.2925 3 47.8663V49C3 49.3312 3.05339 49.6602 3.15811 49.9743L3.20369 50.1111C3.39855 50.6957 3.72684 51.2268 4.16257 51.6626L4.5 52L4.6599 52.1599C5.21083 52.7108 5.89332 53.1119 6.64269 53.3252C7.05009 53.4412 7.47161 53.5 7.89518 53.5H40.5H49H49.882C50.6172 53.5 51.3424 53.6712 52 54L52.6068 54.4046C53.1857 54.7905 53.6211 55.3633 53.8411 56.0233C53.9458 56.3375 54 56.6688 54 57V57.0396C54 57.6658 53.8146 58.278 53.4673 58.7991C53.1611 59.2584 52.7403 59.6299 52.2466 59.8767L51.9412 60.0294C51.3222 60.3389 50.6397 60.5 49.9477 60.5H49H35.5L31.9405 60.8955C31.3153 60.965 30.6991 61.1003 30.1022 61.2993L29.823 61.3923C29.6079 61.464 29.3982 61.5509 29.1954 61.6523L28.9673 61.7663C28.6578 61.9211 28.3729 62.1271 28.1282 62.3718C27.7198 62.7802 27.426 63.296 27.2859 63.8563L27.2712 63.9153C27.0962 64.6153 27.1773 65.3547 27.5 66L27.7663 66.5327C27.9211 66.8422 28.1247 67.1247 28.3694 67.3694C28.782 67.782 29.299 68.0748 29.8651 68.2163L30.3846 68.3462C30.7933 68.4483 31.213 68.5 31.6343 68.5H54.5H56.1435C56.7124 68.5 57.279 68.5698 57.8309 68.7077L58.1883 68.7971C58.7254 68.9314 59.2355 69.157 59.6962 69.4641C60.2268 69.8179 60.6821 70.2732 61.0359 70.8038L61.1035 70.9052C61.3666 71.3 61.5779 71.7338 61.728 72.184C61.9066 72.7199 62 73.288 62 73.8529V74.0021C62 74.3328 61.9594 74.6622 61.8792 74.983C61.6352 75.9591 61.0361 76.8092 60.199 77.3674L60 77.5C58.6847 78.1576 57.2344 78.5 55.7639 78.5H53L45 79H44.5856C43.8777 79 43.1857 79.2095 42.5967 79.6022C42.2028 79.8648 41.8648 80.2028 41.6022 80.5967L41.5547 80.6679C41.193 81.2105 41 81.8479 41 82.5C41 83.1576 41.1531 83.8062 41.4472 84.3944L41.5 84.5L41.7663 85.0327C41.9211 85.3422 42.1247 85.6247 42.3694 85.8694C42.782 86.282 43.299 86.5748 43.8651 86.7163L44.3846 86.8462C44.7933 86.9483 45.213 87 45.6343 87H56.5H61L69.5 88L75.7563 89.6464C77.913 90.214 80.0053 91.0027 82 92L87 94C90.659 94.9979 94.4017 95.6585 98.1812 95.9734L98.5 96H100.701C102.564 96 104.423 95.8461 106.261 95.5399C108.415 95.1808 110.53 94.6138 112.575 93.8469L113.5 93.5C116.828 92.1688 120.044 90.5735 123.118 88.7294L123.5 88.5L126.432 86.1546C127.808 85.0537 129.084 83.833 130.244 82.5067C131.412 81.1716 132.459 79.7348 133.372 78.2135L135 75.5L137 71.5L138.5 67.5L139.5 63.5L140 59V55.5C140 53.1737 139.745 50.8543 139.241 48.5833L139 47.5L138 44L137.915 43.7745C136.973 41.2622 135.831 38.8296 134.5 36.5L132.5 33.5L129.5 30L128 28.5L125 26L122.5 24L119.5 22L118.5 21.5L117.5 21C116.834 20.6671 116.146 20.3819 115.439 20.1464L115 20L113.5 19.5L111.5 19L109.5 18.5L107.5 18L105.267 17.3742C103.758 17.1251 102.231 17 100.702 17H100.202C97.4113 17 94.6309 17.3423 91.9232 18.0192L90 18.5L86.5 19.5L82 21L78 22.5L72.5 24L66.5 25L62 25.5L53.5 26H52.5H44.5H42H41H40.6441C40.2175 26 39.7937 26.0688 39.3889 26.2037L39.1708 26.2764C38.7297 26.4234 38.3288 26.6712 38 27C37.6712 27.3288 37.4234 27.7297 37.2764 28.1708Z" fill="#0795F1"/>
<path fill-rule="evenodd" clip-rule="evenodd" d="M100.202 17.5C97.4522 17.5 94.7125 17.8373 92.0445 18.5043L90.1293 18.9831L86.6478 19.9778L82.1669 21.4714L78.1539 22.9763L72.6072 24.489L66.5688 25.4954L62.0423 25.9984L53.5147 26.5H40.6441C40.2712 26.5 39.9008 26.5601 39.547 26.678L39.3289 26.7507C38.9614 26.8732 38.6275 27.0796 38.3536 27.3536C38.0796 27.6275 37.8732 27.9614 37.7507 28.3289L37.678 28.547C37.5601 28.9008 37.5 29.2712 37.5 29.6441L37.5 30.3559C37.5 30.7288 37.5601 31.0992 37.678 31.453L37.7596 31.6976C37.8763 32.0477 38.0728 32.3657 38.3338 32.6266C38.6155 32.9084 38.9636 33.1148 39.346 33.2269L39.7334 33.3404C40.0947 33.4462 40.4693 33.5 40.8458 33.5H55.2094C55.7868 33.5 56.3604 33.5931 56.9081 33.7757C57.3539 33.9242 57.8207 34 58.2906 34H60.5021C60.8737 34 61.2438 34.0456 61.6043 34.1357C62.7011 34.4099 63.6563 35.083 64.2834 36.0237L64.4333 36.2486L64.5764 36.5348C64.855 37.0919 65 37.7063 65 38.3292C65 39.1974 64.7184 40.0421 64.1975 40.7367L64.0853 40.8862C63.5821 41.5572 62.904 42.0769 62.1252 42.3885L61.7036 42.5571C60.9721 42.8497 60.1915 43 59.4037 43H42.5L8.5 43.5001L7.55229 43.5C6.9379 43.5 6.33194 43.643 5.78241 43.9178C5.16738 44.2253 4.63666 44.6964 4.254 45.2704C4.05585 45.5676 3.89585 45.8936 3.78323 46.2314L3.74828 46.3363C3.58384 46.8296 3.5 47.3462 3.5 47.8663V49C3.5 49.2774 3.54473 49.553 3.63246 49.8162L3.67803 49.953C3.84835 50.4639 4.13529 50.9282 4.51612 51.309L5.01346 51.8064C5.50418 52.2971 6.11209 52.6544 6.77957 52.8443C7.14244 52.9476 7.5179 53 7.89518 53H49.882C50.6948 53 51.4965 53.1893 52.2236 53.5528L52.2514 53.5667L52.8842 53.9885C53.5563 54.4366 54.0606 55.1006 54.3155 55.8652C54.437 56.23 54.5 56.6147 54.5 57V57.0396C54.5 57.7645 54.2854 58.4733 53.8833 59.0765C53.5288 59.6082 53.0417 60.0382 52.4702 60.3239L52.1648 60.4766C51.4764 60.8208 50.7173 61 49.9477 61H35.5277L31.9957 61.3924C31.4055 61.458 30.8238 61.5858 30.2604 61.7736L29.9811 61.8667C29.7885 61.9309 29.6007 62.0087 29.419 62.0995L29.1909 62.2136C28.9299 62.3441 28.6888 62.5183 28.4817 62.7254C28.1367 63.0704 27.8889 63.5061 27.771 63.9776L27.7562 64.0366C27.6102 64.6207 27.6779 65.2379 27.9472 65.7764L28.2136 66.3091C28.3443 66.5705 28.5163 66.8092 28.723 67.0159C29.0715 67.3644 29.5082 67.6117 29.9864 67.7312L30.5059 67.8611C30.8749 67.9533 31.2539 68 31.6343 68H56.1435C56.7532 68 57.3607 68.0748 57.9522 68.2227L58.3096 68.312C58.9023 68.4602 59.4651 68.7092 59.9735 69.0481C60.5591 69.4385 61.0615 69.9409 61.4519 70.5265L61.5195 70.6278C61.8076 71.0601 62.0384 71.5341 62.2023 72.0258C62.3977 72.6121 62.5 73.2336 62.5 73.8529V74.0021C62.5 74.3737 62.4544 74.7438 62.3643 75.1043C62.0901 76.2011 61.417 77.1563 60.4763 77.7834L60.2514 77.9333L60.2236 77.9472C58.8389 78.6396 57.3121 79 55.7639 79H53.0156L45.0156 79.5H44.5856C43.9765 79.5 43.3809 79.6803 42.874 80.0182C42.5351 80.2442 42.2442 80.5351 42.0182 80.874L41.9707 80.9453C41.6638 81.4057 41.5 81.9467 41.5 82.5C41.5 83.08 41.635 83.652 41.8944 84.1708L42.2136 84.8091C42.3443 85.0705 42.5163 85.3092 42.723 85.5159C43.0715 85.8644 43.5082 86.1117 43.9864 86.2312L44.5059 86.3611C44.8749 86.4533 45.2539 86.5 45.6343 86.5H61.0293L69.5933 87.5075L75.8836 89.1629C78.0668 89.7374 80.1851 90.5351 82.2049 91.5434L87.1591 93.5251C90.7798 94.5108 94.4831 95.1635 98.2227 95.4752L98.5208 95.5H100.701C102.536 95.5 104.368 95.3484 106.178 95.0467C108.301 94.6929 110.384 94.1343 112.399 93.3787L113.314 93.0358C113.316 93.0351 113.318 93.0345 113.319 93.0338C116.621 91.7129 119.811 90.1301 122.86 88.3006L123.214 88.0885L126.119 85.7642C127.472 84.6817 128.727 83.4815 129.868 82.1774C131.016 80.8647 132.046 79.452 132.943 77.9563L134.561 75.2593L136.541 71.2999L138.022 67.3511L139.007 63.4114L139.5 58.9723V55.5C139.5 53.2101 139.249 50.9271 138.753 48.6918L138.515 47.6229L137.525 44.1567L137.447 43.95C136.517 41.4682 135.389 39.0648 134.074 36.763L132.101 33.8024L129.133 30.34L127.662 28.8696L124.688 26.3904L124.68 26.3841L122.205 24.404L119.249 22.4333L117.276 21.4472C116.632 21.1249 115.965 20.8487 115.281 20.6208L113.36 19.9804L107.372 18.4834L105.159 17.8631C103.686 17.6214 102.195 17.5 100.702 17.5H100.202ZM91.802 17.5341C94.5493 16.8473 97.3704 16.5 100.202 16.5H100.702C102.259 16.5 103.813 16.6274 105.349 16.8808L105.376 16.8853L107.628 17.5166L113.64 19.0196L115.597 19.6721C116.326 19.915 117.037 20.2093 117.724 20.5528L119.751 21.5667L122.795 23.596L125.32 25.6158L128.338 28.1304L129.867 29.66L132.899 33.1975L134.926 36.237L134.934 36.2519C136.279 38.6047 137.432 41.0616 138.384 43.5989L138.475 43.8433L139.485 47.377L139.729 48.4749C140.241 50.7814 140.5 53.1372 140.5 55.5V59.0277L139.993 63.5886L138.978 67.6489L137.459 71.7001L135.439 75.7408L133.801 78.4708C132.873 80.0176 131.808 81.4784 130.62 82.836C129.44 84.1844 128.143 85.4257 126.744 86.545L123.786 88.9114L123.375 89.1581C120.279 91.016 117.038 92.6231 113.686 93.9642L113.676 93.9683L112.751 94.3151C110.675 95.0933 108.529 95.6687 106.343 96.0331C104.478 96.3438 102.591 96.5 100.701 96.5H98.4792L98.1397 96.4717C94.3297 96.1542 90.5569 95.4883 86.8684 94.4824L86.8409 94.4749L81.795 92.4565L81.7764 92.4472C79.8125 91.4653 77.7525 90.6887 75.6291 90.1299L69.4067 88.4925L60.9707 87.5H45.6343C45.1721 87.5 44.7117 87.4433 44.2633 87.3312L43.7439 87.2014C43.0898 87.0378 42.4926 86.6997 42.0159 86.223C41.7332 85.9403 41.4979 85.6139 41.3191 85.2563L41 84.618C40.6712 83.9604 40.5 83.2353 40.5 82.5C40.5 81.7492 40.7222 81.0153 41.1387 80.3906L41.1862 80.3193C41.4854 79.8705 41.8705 79.4854 42.3193 79.1862C42.9905 78.7388 43.779 78.5 44.5856 78.5H44.9844L52.9844 78H55.7639C57.1466 78 58.5104 77.6805 59.7489 77.0665L59.9216 76.9513C60.6553 76.4622 61.1803 75.7172 61.3942 74.8618C61.4645 74.5806 61.5 74.2919 61.5 74.0021V73.8529C61.5 73.3424 61.4155 72.8277 61.2536 72.3421C61.1175 71.9336 60.9257 71.5399 60.6874 71.1825L60.6199 71.0812C60.3027 70.6055 59.8945 70.1973 59.4188 69.8801C59.0058 69.6048 58.5486 69.4025 58.067 69.2821L57.7096 69.1928C57.1974 69.0648 56.6715 69 56.1435 69H31.6343C31.1721 69 30.7117 68.9433 30.2633 68.8312L29.7439 68.7014C29.0898 68.5378 28.4926 68.1997 28.0159 67.723C27.7332 67.4403 27.4979 67.1139 27.3191 66.7563L27.0528 66.2236C26.6768 65.4716 26.5822 64.6098 26.7861 63.7941L26.8008 63.7351C26.9631 63.0859 27.3028 62.4901 27.7746 62.0183C28.0569 61.7359 28.3856 61.4982 28.7437 61.3191L28.9718 61.2051C29.1958 61.0931 29.4274 60.9972 29.6649 60.918L29.9441 60.8249C30.5744 60.6148 31.225 60.4719 31.8853 60.3986L35.4723 60H49.9477C50.5621 60 51.1681 59.857 51.7176 59.5822L52.023 59.4295C52.4389 59.2216 52.7933 58.9087 53.0512 58.5218C53.3439 58.0828 53.5 57.5671 53.5 57.0396V57C53.5 56.723 53.4546 56.445 53.3668 56.1814C53.1816 55.6261 52.8151 55.1443 52.3295 54.8206L51.7493 54.4338C51.1683 54.1484 50.5295 54 49.882 54H7.89518C7.42532 54 6.95773 53.9348 6.50582 53.8061C5.67456 53.5695 4.91748 53.1246 4.30635 52.5135L3.80902 52.0161C3.3184 51.5255 2.94876 50.9274 2.72935 50.2692L2.68377 50.1325C2.56205 49.7673 2.5 49.3849 2.5 49V47.8663C2.5 47.2388 2.60116 46.6154 2.7996 46.0201L2.83455 45.9152C2.97562 45.492 3.17511 45.0859 3.42195 44.7157C3.8999 43.9988 4.56253 43.4097 5.33519 43.0234C6.02358 42.6792 6.78265 42.5 7.55229 42.5H8.5L42.5 41.9999L59.4037 42C60.0643 42 60.7188 41.8739 61.3322 41.6286L61.7538 41.46C62.3623 41.2166 62.8921 40.8105 63.2853 40.2862L63.3975 40.1367C63.7886 39.6152 64 38.981 64 38.3292C64 37.8615 63.8911 37.4003 63.682 36.982L63.5667 36.7514L63.4513 36.5784C62.9622 35.8447 62.2172 35.3197 61.3618 35.1058C61.0806 35.0355 60.7919 35 60.5021 35H58.2906C57.7132 35 57.1396 34.9069 56.5919 34.7243C56.1461 34.5758 55.6793 34.5 55.2094 34.5H40.8458C40.3741 34.5 39.9049 34.4327 39.4522 34.3L39.0649 34.1865C38.5215 34.0273 38.027 33.7341 37.6267 33.3338C37.256 32.9631 36.9767 32.5112 36.8109 32.0139L36.7293 31.7692C36.5774 31.3135 36.5 30.8362 36.5 30.3559L36.5 29.6441C36.5 29.1638 36.5774 28.6865 36.7293 28.2308L36.8021 28.0127C36.9736 27.4979 37.2627 27.0301 37.6464 26.6464C38.0301 26.2627 38.4979 25.9736 39.0127 25.8021L39.2308 25.7293C39.6865 25.5774 40.1638 25.5 40.6441 25.5H53.4853L61.9577 25.0016L66.4312 24.5046L72.3928 23.511L77.8461 22.0237L81.8331 20.5286L86.3522 19.0222L89.8707 18.0169L91.802 17.5341Z" fill="#0795F1"/>
<path d="M141 56.5C141 78.8675 122.868 97 100.5 97C78.1325 97 60 78.8675 60 56.5C60 34.1325 78.1325 16 100.5 16C122.868 16 141 34.1325 141 56.5Z" fill="#0795F1"/>
<path d="M94 7H106V21H94V7Z" fill="#0795F1"/>
<path d="M86 4C86 1.79086 87.7909 0 90 0H109C111.209 0 113 1.79086 113 4V7C113 9.20914 111.209 11 109 11H90C87.7909 11 86 9.20914 86 7V4Z" fill="#0795F1"/>
<path d="M36 30C36 27.2386 38.2386 25 41 25H70C72.7614 25 75 27.2386 75 30V30C75 32.7614 72.7614 35 70 35H41C38.2386 35 36 32.7614 36 30V30Z" fill="#0795F1"/>
<path d="M0 48C0 44.6863 2.68629 42 6 42H67C70.3137 42 73 44.6863 73 48V48C73 51.3137 70.3137 54 67 54H6C2.68629 54 0 51.3137 0 48V48Z" fill="#0795F1"/>
<path d="M26 64.5C26 62.0147 28.0147 60 30.5 60H94.5C96.9853 60 99 62.0147 99 64.5C99 66.9853 96.9853 69 94.5 69H30.5C28.0147 69 26 66.9853 26 64.5Z" fill="#0795F1"/>
<path d="M39 83C39 80.2386 41.2386 78 44 78H107C109.761 78 112 80.2386 112 83V83C112 85.7614 109.761 88 107 88H44C41.2386 88 39 85.7614 39 83V83Z" fill="#0795F1"/>
<rect x="12" y="25" width="17" height="9" rx="4.5" fill="#0795F1"/>
<rect x="13" y="60" width="9" height="9" rx="4.5" fill="#0795F1"/>
<ellipse cx="103.059" cy="54.044" rx="6.12097" ry="6.04396" fill="white"/>
<path d="M77.3307 78.8746C66.3892 87.9621 90.6334 62.1499 99.058 53.2524C100.535 51.6929 103.038 51.7627 104.456 53.3796V53.3796C105.872 54.9947 105.579 57.4606 103.827 58.7088C98.3297 62.6271 86.9047 70.9229 77.3307 78.8746Z" fill="white"/>
<path d="M81.2358 82.8793C80.0101 84.5152 80.351 86.8547 82.1149 87.8876C86.4167 90.4063 91.2034 92.0451 96.1889 92.6901C102.411 93.4951 108.738 92.7257 114.576 90.4542C120.414 88.1828 125.57 84.484 129.559 79.7056C133.549 74.9273 136.241 69.2264 137.383 63.1391C138.524 57.0519 138.077 50.7782 136.085 44.9082C134.092 39.0381 130.618 33.7645 125.99 29.5834C121.362 25.4022 115.733 22.4509 109.631 21.0069C104.725 19.846 99.6436 19.69 94.6979 20.5333C92.699 20.8742 91.5543 22.9186 92.1034 24.8706V24.8706C92.647 26.8034 94.648 27.9115 96.6344 27.6193C100.377 27.0688 104.203 27.2296 107.904 28.1055C112.786 29.2607 117.29 31.6218 120.992 34.9667C124.694 38.3116 127.473 42.5305 129.068 47.2265C130.662 51.9226 131.019 56.9415 130.106 61.8113C129.193 66.6811 127.039 71.2418 123.848 75.0645C120.656 78.8872 116.531 81.8462 111.861 83.6634C107.191 85.4805 102.129 86.0961 97.1511 85.4521C93.3787 84.9641 89.7486 83.7647 86.4544 81.9312C84.7009 80.9552 82.4391 81.2732 81.2358 82.8793V82.8793Z" fill="white"/>
</svg>
