<svg width="101" height="74" viewBox="0 0 101 74" fill="none" xmlns="http://www.w3.org/2000/svg">
<path d="M101 40.0494C101 56.3299 87.5984 69.5275 71.0665 69.5275C54.5347 69.5275 41.1331 56.3299 41.1331 40.0494C41.1331 23.7692 54.5347 10.5714 71.0665 10.5714C87.5984 10.5714 101 23.7692 101 40.0494Z" fill="#0795F1"/>
<path fill-rule="evenodd" clip-rule="evenodd" d="M54.1698 15.3076C50.0748 16.6029 43.968 17.5939 28.102 17.6868L28.0996 17.2802C43.9578 17.1873 50.0133 16.1958 54.0468 14.92C55.2368 14.5435 56.2586 14.1387 57.3094 13.7223C59.8115 12.7309 62.4795 11.6738 67.9791 10.7774L68.0451 11.1787C62.5899 12.0678 59.9806 13.1023 57.4914 14.0889C56.4325 14.5088 55.3952 14.92 54.1698 15.3076Z" fill="#0795F1"/>
<path fill-rule="evenodd" clip-rule="evenodd" d="M27.9006 23.5824C27.9006 23.5824 27.9005 23.5824 27.8972 23.3791C27.8938 23.1759 27.894 23.1759 27.894 23.1759L28.034 23.1736C28.1255 23.1722 28.26 23.1701 28.4318 23.1675C28.7755 23.1624 29.2688 23.1552 29.8671 23.1472C31.0637 23.1314 32.6804 23.1123 34.3608 23.0996C37.7134 23.0743 41.3428 23.0738 42.3752 23.1768C43.4899 23.2881 44.157 24.0184 44.4563 24.8886C44.7528 25.7494 44.6998 26.7672 44.3748 27.5252L44.0002 27.365C44.2861 26.6999 44.3349 25.7863 44.0714 25.0208C43.8108 24.2646 43.2561 23.6734 42.3345 23.5814C41.3306 23.4812 37.7312 23.4807 34.3639 23.5062C32.6845 23.5189 31.0686 23.5379 29.8725 23.5538C29.2745 23.5618 28.7815 23.5689 28.4379 23.574C28.2662 23.5766 28.1318 23.5787 28.0404 23.5802L27.9006 23.5824ZM43.2642 28.3833C43.4557 28.2465 43.551 28.1165 43.5843 27.9991L43.9761 28.1108C43.9077 28.3492 43.7338 28.5476 43.5013 28.7139C43.2679 28.8808 42.9588 29.0274 42.589 29.1582C41.849 29.4199 40.8284 29.6308 39.5869 29.8026C37.1014 30.1466 33.6883 30.3391 29.7634 30.4503C25.1499 30.5811 19.813 30.5999 14.4268 30.619C10.6518 30.6323 6.85244 30.6457 3.26102 30.6978L3.25511 30.2913C6.85733 30.239 10.6601 30.2256 14.4357 30.2123C19.8156 30.1934 25.1405 30.1746 29.7519 30.0439C33.6744 29.9327 37.0689 29.7406 39.531 29.3999C40.7633 29.2294 41.7517 29.0229 42.453 28.7749C42.8036 28.6509 43.0736 28.5196 43.2642 28.3833ZM3.05992 36.7966C3.05992 36.7966 3.05959 36.7967 3.05443 36.5934C3.04927 36.3902 3.04961 36.3902 3.04961 36.3902L3.0506 36.3902L3.37519 36.3821C3.5879 36.3769 3.9002 36.3694 4.29861 36.3601C5.09537 36.3415 6.23646 36.3158 7.61401 36.2872C10.369 36.2299 14.0697 36.1612 17.8523 36.1154C21.6346 36.0696 25.5001 36.0467 28.5841 36.0811C30.1259 36.0983 31.474 36.1298 32.5195 36.18C33.5547 36.2298 34.3183 36.2986 34.672 36.3977C35.9944 36.768 36.7605 37.216 37.1842 37.8595C37.6039 38.4966 37.6592 39.2868 37.6714 40.2502C37.6842 41.2733 37.3476 41.9491 36.7815 42.439C36.2316 42.9151 35.4758 43.2042 34.6871 43.4929L34.6545 43.5051L20.3658 43.7088L20.36 43.3022L34.5793 43.0993C35.3675 42.8102 36.0374 42.5451 36.5147 42.132C36.9823 41.7275 37.2756 41.1696 37.2641 40.2553C37.2519 39.281 37.1897 38.6078 36.844 38.0828C36.5024 37.5642 35.8552 37.1514 34.562 36.7891C34.2616 36.7051 33.5484 36.6365 32.4999 36.5861C31.4617 36.5362 30.1193 36.5048 28.5795 36.4877C25.5003 36.4533 21.6386 36.4762 17.8572 36.522C14.0762 36.5678 10.3767 36.6364 7.62248 36.6936C6.24534 36.7223 5.10457 36.748 4.3081 36.7666C3.90987 36.7759 3.59771 36.7834 3.38513 36.7886L3.05992 36.7966Z" fill="#0795F1"/>
<path fill-rule="evenodd" clip-rule="evenodd" d="M27.9006 23.5824C27.9006 23.5824 27.9005 23.5824 27.8972 23.3791C27.8938 23.1759 27.894 23.1759 27.894 23.1759L28.034 23.1736C28.1255 23.1722 28.26 23.1701 28.4318 23.1675C28.7755 23.1623 29.2688 23.1552 29.8671 23.1472C31.0637 23.1314 32.6804 23.1123 34.3608 23.0996C37.7134 23.0742 41.3428 23.0738 42.3752 23.1768C43.4899 23.2881 44.157 24.0184 44.4563 24.8886C44.7528 25.7494 44.6998 26.7672 44.3748 27.5252L44.0002 27.365C44.2861 26.6998 44.3349 25.7863 44.0714 25.0207C43.8108 24.2646 43.2561 23.6734 42.3345 23.5814C41.3306 23.4812 37.7312 23.4807 34.3639 23.5062C32.6845 23.5189 31.0686 23.5379 29.8725 23.5538C29.2745 23.5618 28.7815 23.5689 28.4379 23.574C28.2662 23.5766 28.1318 23.5787 28.0404 23.5801L27.9006 23.5824ZM43.2642 28.3833C43.4557 28.2464 43.551 28.1164 43.5843 27.9991L43.9761 28.1108C43.9077 28.3492 43.7338 28.5476 43.5013 28.7139C43.2679 28.8808 42.9588 29.0274 42.589 29.1582C41.849 29.4199 40.8284 29.6308 39.5869 29.8026C37.1014 30.1466 33.6883 30.339 29.7634 30.4503C25.1499 30.5811 19.813 30.5999 14.4268 30.619C10.6518 30.6323 6.85244 30.6457 3.26102 30.6978L3.25511 30.2912C6.85733 30.239 10.6601 30.2256 14.4357 30.2123C19.8156 30.1933 25.1405 30.1746 29.7519 30.0439C33.6744 29.9327 37.0689 29.7406 39.531 29.3999C40.7633 29.2293 41.7517 29.0229 42.453 28.7749C42.8036 28.6508 43.0736 28.5196 43.2642 28.3833ZM3.05992 36.7966C3.05992 36.7966 3.05959 36.7966 3.05443 36.5934C3.04927 36.3902 3.04961 36.3901 3.04961 36.3901H3.0506L3.37519 36.3821C3.5879 36.3769 3.9002 36.3694 4.29861 36.3601C5.09537 36.3415 6.23646 36.3157 7.61401 36.2871C10.369 36.2299 14.0697 36.1612 17.8523 36.1154C21.6346 36.0696 25.5001 36.0467 28.5841 36.0811C30.1259 36.0983 31.474 36.1298 32.5195 36.18C33.5547 36.2298 34.3183 36.2986 34.672 36.3977C35.9944 36.768 36.7605 37.216 37.1842 37.8595C37.6039 38.4966 37.6592 39.2868 37.6714 40.2502C37.6842 41.2733 37.3476 41.9491 36.7815 42.439C36.2316 42.9151 35.4758 43.2042 34.6871 43.4929L34.6545 43.5051L20.3658 43.7088L20.36 43.3022L34.5793 43.0993C35.3675 42.8102 36.0374 42.5451 36.5147 42.132C36.9823 41.7275 37.2756 41.1696 37.2641 40.2553C37.2519 39.2809 37.1897 38.6078 36.844 38.0828C36.5024 37.5642 35.8552 37.1513 34.562 36.7891C34.2616 36.7051 33.5484 36.6365 32.4999 36.5861C31.4617 36.5362 30.1193 36.5048 28.5795 36.4876C25.5003 36.4533 21.6386 36.4762 17.8572 36.522C14.0762 36.5678 10.3767 36.6364 7.62248 36.6936C6.24534 36.7223 5.10457 36.748 4.3081 36.7666C3.90987 36.7759 3.59771 36.7834 3.38513 36.7886L3.05992 36.7966Z" fill="#0795F1"/>
<path fill-rule="evenodd" clip-rule="evenodd" d="M27.9006 23.5824C27.9006 23.5824 27.9005 23.5824 27.8972 23.3791C27.8938 23.1759 27.894 23.1759 27.894 23.1759L28.034 23.1736C28.1255 23.1722 28.26 23.1701 28.4318 23.1675C28.7756 23.1623 29.2688 23.1552 29.8671 23.1472C31.0637 23.1314 32.6804 23.1123 34.3609 23.0996C37.7134 23.0742 41.3428 23.0738 42.3752 23.1768C43.4899 23.2881 44.157 24.0184 44.4563 24.8886C44.7528 25.7494 44.6998 26.7672 44.3748 27.5252L44.0002 27.365C44.2861 26.6998 44.3349 25.7863 44.0714 25.0207C43.8108 24.2646 43.2561 23.6734 42.3345 23.5814C41.3306 23.4812 37.7312 23.4807 34.364 23.5062C32.6845 23.5189 31.0686 23.5379 29.8725 23.5538C29.2745 23.5618 28.7815 23.5689 28.4379 23.574C28.2662 23.5766 28.1318 23.5787 28.0404 23.5801L27.9006 23.5824ZM43.465 28.1825C43.6585 28.0438 43.7546 27.913 43.788 27.7958L44.1798 27.9075C44.1113 28.1461 43.9366 28.3452 43.7029 28.5127C43.4679 28.681 43.1571 28.8297 42.7845 28.9633C42.0392 29.2306 41.0113 29.4495 39.7601 29.6309C37.2555 29.994 33.817 30.2119 29.8665 30.3486C24.7673 30.5251 18.7991 30.5665 12.8637 30.6077C9.60307 30.6303 6.35234 30.6529 3.26103 30.6978L3.25511 30.2912C6.3536 30.2463 9.60792 30.2237 12.8701 30.2011C18.8011 30.1599 24.7582 30.1185 29.8524 29.9423C33.8003 29.8057 37.2203 29.5882 39.7016 29.2285C40.9433 29.0485 41.9398 28.8342 42.6468 28.5807C43.0008 28.4538 43.2728 28.3203 43.465 28.1825ZM3.05909 37.2033C3.05909 37.2033 3.05876 37.2033 3.05444 37C3.05012 36.7967 3.05045 36.7967 3.05045 36.7967L3.05144 36.7967L3.37395 36.79C3.58528 36.7857 3.8955 36.7795 4.29108 36.7717C5.08226 36.7562 6.21489 36.7348 7.58083 36.711C10.3127 36.6633 13.978 36.6061 17.7115 36.568C21.4448 36.5299 25.2473 36.5108 28.2531 36.5394C29.7558 36.5537 31.061 36.5799 32.0594 36.6218C32.5585 36.6427 32.9827 36.6676 33.3174 36.697C33.6472 36.726 33.9046 36.7604 34.061 36.8043C35.1524 37.1099 36.0491 37.4478 36.6753 37.9727C37.316 38.5098 37.6585 39.2291 37.6714 40.2502C37.6842 41.2692 37.3603 41.9881 36.8001 42.5012C36.2498 43.0058 35.4904 43.2937 34.6663 43.4994L34.6435 43.5051L20.3658 43.7088L20.36 43.3022L34.5903 43.0993C35.3853 42.8989 36.0552 42.6321 36.5247 42.202C36.9886 41.7767 37.2757 41.1741 37.2641 40.2553C37.2526 39.3386 36.9531 38.7366 36.4135 38.2841C35.8594 37.8196 35.0374 37.5 33.9511 37.1957C33.8353 37.1633 33.6127 37.1311 33.2817 37.102C32.9557 37.0733 32.5384 37.0488 32.0423 37.028C31.0504 36.9865 29.7503 36.9603 28.2492 36.946C25.2474 36.9174 21.4481 36.9364 17.7157 36.9746C13.9835 37.0127 10.3192 37.0699 7.58796 37.1175C6.22234 37.1413 5.09 37.1628 4.29906 37.1782C3.90361 37.186 3.59351 37.1922 3.38229 37.1965L3.05909 37.2033Z" fill="#0795F1"/>
<path d="M11.8105 20.533C11.8105 18.8488 13.178 17.4835 14.8649 17.4835H18.5302C20.2171 17.4835 21.5847 18.8488 21.5847 20.533C21.5847 22.2171 20.2171 23.5824 18.5302 23.5824H14.8649C13.178 23.5824 11.8105 22.2171 11.8105 20.533Z" fill="#0795F1"/>
<path d="M5.70161 46.5549C5.70161 44.8708 7.06915 43.5055 8.75605 43.5055C10.443 43.5055 11.8105 44.8708 11.8105 46.5549C11.8105 48.2391 10.443 49.6044 8.75605 49.6044C7.06915 49.6044 5.70161 48.2391 5.70161 46.5549Z" fill="#0795F1"/>
<path d="M17.9194 46.1484C17.9194 44.4642 19.2869 43.0989 20.9738 43.0989H44.5948C46.2816 43.0989 47.6492 44.4642 47.6492 46.1484C47.6492 47.8325 46.2816 49.1978 44.5948 49.1978H20.9738C19.2869 49.1978 17.9194 47.8325 17.9194 46.1484Z" fill="#0795F1"/>
<path d="M0 33.544C0 31.4107 1.73219 29.6813 3.86895 29.6813H40.5222C42.6591 29.6813 44.3911 31.4107 44.3911 33.544C44.3911 35.6772 42.6591 37.4066 40.5222 37.4066H3.86895C1.73219 37.4066 0 35.6772 0 33.544Z" fill="#0795F1"/>
<path d="M25.25 20.3297C25.25 18.5332 26.7087 17.0769 28.5081 17.0769H66.3831C68.1823 17.0769 69.6411 18.5332 69.6411 20.3297C69.6411 22.1261 68.1823 23.5824 66.3831 23.5824H28.5081C26.7087 23.5824 25.25 22.1261 25.25 20.3297Z" fill="#0795F1"/>
<path d="M43.1694 22.3626C43.1694 20.5662 44.6282 19.1099 46.4274 19.1099H48.871C50.6702 19.1099 52.129 20.5662 52.129 22.3626C52.129 24.1591 50.6702 25.6154 48.871 25.6154H46.4274C44.6282 25.6154 43.1694 24.1591 43.1694 22.3626Z" fill="#0795F1"/>
<path d="M42.1781 20.4919C41.9899 18.7054 43.2879 17.1048 45.0778 16.917L47.5079 16.6619C49.2974 16.4741 50.9003 17.7702 51.0885 19.5567C51.2766 21.3433 49.9787 22.9439 48.1888 23.1317L45.7587 23.3868C43.9692 23.5746 42.3662 22.2785 42.1781 20.4919Z" fill="#0795F1"/>
<path d="M46.2462 19.9734C45.8964 18.2112 47.0436 16.4996 48.8087 16.1504L51.2058 15.6762C52.9708 15.327 54.6854 16.4725 55.0348 18.2347C55.3846 19.9968 54.2374 21.7084 52.4723 22.0577L50.0756 22.5319C48.3106 22.881 46.596 21.7356 46.2462 19.9734Z" fill="#0795F1"/>
<path d="M51.007 19.4568C50.502 17.7326 51.4929 15.9261 53.2197 15.4218L55.5651 14.7371C57.2922 14.2329 59.1017 15.2219 59.6067 16.9462C60.1117 18.6704 59.1212 20.4769 57.3941 20.9811L55.0487 21.6659C53.3219 22.1701 51.512 21.181 51.007 19.4568Z" fill="#0795F1"/>
<path d="M44.3911 25.6154C44.3911 23.8189 45.8499 22.3626 47.6492 22.3626H50.0927C51.892 22.3626 53.3508 23.8189 53.3508 25.6154C53.3508 27.4118 51.892 28.8681 50.0927 28.8681H47.6492C45.8499 28.8681 44.3911 27.4118 44.3911 25.6154Z" fill="#0795F1"/>
<path d="M41.5403 31.3077C41.5403 29.5112 42.9991 28.0549 44.7984 28.0549H47.2419C49.0412 28.0549 50.5 29.5112 50.5 31.3077C50.5 33.1041 49.0412 34.5604 47.2419 34.5604H44.7984C42.9991 34.5604 41.5403 33.1041 41.5403 31.3077Z" fill="#0795F1"/>
<path d="M39.504 32.1209C39.504 30.3244 40.9628 28.8681 42.7621 28.8681H45.2056C47.0049 28.8681 48.4637 30.3244 48.4637 32.1209C48.4637 33.9173 47.0049 35.3736 45.2056 35.3736H42.7621C40.9628 35.3736 39.504 33.9173 39.504 32.1209Z" fill="#0795F1"/>
<path d="M35.3871 33.0971C35.1867 31.3118 36.4738 29.7023 38.262 29.5022L40.6903 29.2305C42.4786 29.0304 44.0906 30.3154 44.2909 32.1006C44.4913 33.8859 43.2044 35.4954 41.4161 35.6955L38.9878 35.9672C37.1997 36.1673 35.5876 34.8823 35.3871 33.0971Z" fill="#0795F1"/>
<path d="M28.1008 59.5659C28.1008 57.8818 29.4683 56.5165 31.1552 56.5165H54.7762C56.4631 56.5165 57.8306 57.8818 57.8306 59.5659C57.8306 61.25 56.4631 62.6154 54.7762 62.6154H31.1552C29.4683 62.6154 28.1008 61.25 28.1008 59.5659Z" fill="#0795F1"/>
<path fill-rule="evenodd" clip-rule="evenodd" d="M42.8729 50.1122C43.6173 50.8848 43.8389 51.9366 43.7676 53.3459L43.7672 53.3528L43.7664 53.3597C43.5827 54.8995 43.1539 55.7253 42.4689 56.2229C42.1329 56.4669 41.7476 56.6222 41.3306 56.7507C41.0826 56.8267 40.8109 56.8971 40.5277 56.9698C40.3434 57.0174 40.1542 57.0662 39.9633 57.1191L39.8548 56.7271C40.0619 56.6702 40.2566 56.6198 40.4419 56.5722C40.7155 56.5018 40.9685 56.4364 41.2108 56.362C41.6096 56.2392 41.9459 56.0997 42.2294 55.894C42.7821 55.4927 43.1832 54.8015 43.3612 53.3182C43.4292 51.9574 43.2076 51.0462 42.5792 50.3944C41.9407 49.7313 40.8451 49.2974 39.0623 48.9917L39.1312 48.5908C40.9294 48.899 42.1382 49.3499 42.8729 50.1122Z" fill="#0795F1"/>
<path fill-rule="evenodd" clip-rule="evenodd" d="M52.439 64.5963C49.3914 63.812 45.4056 62.998 41.4841 62.5463L41.5309 62.1425C45.474 62.5967 49.4782 63.4147 52.5404 64.2027C54.0712 64.5963 55.37 64.9838 56.3091 65.3152C56.7783 65.4806 57.1623 65.6339 57.4417 65.7685C57.5814 65.8356 57.6995 65.9003 57.7911 65.9621C57.8746 66.0186 57.965 66.0909 58.0119 66.182L57.6494 66.3674C57.6506 66.3695 57.6502 66.3695 57.6482 66.3674C57.6425 66.3609 57.6205 66.3377 57.5631 66.2991C57.4942 66.2528 57.3957 66.1975 57.265 66.1349C57.0043 66.0092 56.6366 65.862 56.1735 65.6986C55.249 65.3721 53.9629 64.9883 52.439 64.5963Z" fill="#0795F1"/>
<path d="M45.9346 59.3626L56.2537 61.4533L54.5726 64.6484L44.2535 62.5577L45.9346 59.3626Z" fill="#0795F1"/>
<path d="M48.3236 59.2455L58.3393 62.4889L57.2084 65.9698L47.1927 62.7264L48.3236 59.2455Z" fill="#0795F1"/>
<path d="M39.504 57.7944L48.0385 51.6374L50.1852 54.6035L41.6507 60.7605L39.504 57.7944Z" fill="#0795F1"/>
<path d="M42.3548 59.1065L44.3822 48.7912L47.9791 49.4958L45.9517 59.8111L42.3548 59.1065Z" fill="#0795F1"/>
<path d="M47.9888 55.4061L40.3186 48.2041L42.8297 45.5385L50.4996 52.7404L47.9888 55.4061Z" fill="#0795F1"/>
<path d="M40.7348 36.8347C39.8483 38.3979 37.8603 38.9476 36.2945 38.0624L34.1681 36.8604C32.6024 35.9752 32.0518 33.9904 32.9384 32.4272C33.825 30.8639 35.8131 30.3143 37.3789 31.1995L39.5052 32.4015C41.0712 33.2867 41.6214 35.2715 40.7348 36.8347Z" fill="#0795F1"/>
<path d="M40.7168 44.0487C38.9192 44.1292 37.3966 42.7399 37.316 40.9452L37.2065 38.508C37.1259 36.7134 38.5177 35.1933 40.3153 35.1128C42.1129 35.0323 43.6353 36.4219 43.7159 38.2165L43.8255 40.6536C43.9061 42.4484 42.5145 43.9682 40.7168 44.0487Z" fill="#0795F1"/>
<path d="M40.204 47.543C38.9589 48.7985 36.93 48.8087 35.6724 47.5657C34.4147 46.3228 34.4045 44.2971 35.6496 43.0416L37.3701 41.3066C38.6152 40.0508 40.6441 40.0407 41.9016 41.2839C43.1596 42.5268 43.1698 44.5525 41.9244 45.808L40.204 47.543Z" fill="#0795F1"/>
<path d="M67.6048 3.25275C67.6048 1.4563 69.0636 0 70.8629 0C72.6622 0 74.121 1.4563 74.121 3.25275V10.978C74.121 12.7745 72.6622 14.2308 70.8629 14.2308C69.0636 14.2308 67.6048 12.7745 67.6048 10.978V3.25275Z" fill="#0795F1"/>
<path d="M63.125 3.04945C63.125 1.36528 64.4926 0 66.1794 0H75.1391C76.826 0 78.1935 1.36528 78.1935 3.04945C78.1935 4.7336 76.826 6.0989 75.1391 6.0989H66.1794C64.4926 6.0989 63.125 4.7336 63.125 3.04945Z" fill="#0795F1"/>
<ellipse cx="72.4919" cy="39.033" rx="4.47984" ry="4.47253" fill="white"/>
<path d="M53.6618 57.4077C45.6553 64.1313 63.392 45.0378 69.5606 38.4505C70.6429 37.2947 72.4768 37.3449 73.5144 38.5413V38.5413C74.551 39.7365 74.3342 41.5626 73.0505 42.4877C69.0254 45.3883 60.6667 51.5253 53.6618 57.4077Z" fill="white"/>
<path d="M57.6422 58.7329C56.7923 59.8809 57.0297 61.5131 58.2579 62.2421C61.2688 64.0293 64.6202 65.1919 68.1111 65.6489C72.46 66.2183 76.8825 65.6741 80.9627 64.0674C85.0429 62.4606 88.6467 59.8442 91.4352 56.4642C94.2238 53.0842 96.1055 49.0516 96.9033 44.7457C97.7011 40.4398 97.3888 36.0021 95.9959 31.8498C94.6029 27.6976 92.175 23.9673 88.9405 21.0097C85.706 18.0521 81.7712 15.9644 77.5061 14.943C74.081 14.1227 70.5334 14.0117 67.0801 14.6061C65.6739 14.8482 64.8692 16.2859 65.2513 17.6607V17.6607C65.6329 19.0339 67.0548 19.8211 68.465 19.6141C71.0672 19.2322 73.7266 19.3481 76.2996 19.9643C79.7117 20.7814 82.8596 22.4516 85.4472 24.8176C88.0348 27.1837 89.9771 30.168 91.0914 33.4898C92.2058 36.8116 92.4556 40.3618 91.8174 43.8065C91.1791 47.2512 89.6738 50.4773 87.4429 53.1813C85.2121 55.8853 82.329 57.9784 79.0649 59.2638C75.8007 60.5492 72.2628 60.9846 68.7837 60.529C66.1603 60.1856 63.6354 59.3441 61.3423 58.0582C60.0992 57.3612 58.4901 57.5875 57.6422 58.7329V58.7329Z" fill="white"/>
</svg>
